<svg xmlns="http://www.w3.org/2000/svg" xmlns:xlink="http://www.w3.org/1999/xlink" width="29.225" height="24.152" viewBox="0 0 29.225 24.152">
  <defs>
    <clipPath id="clip-path">
      <rect id="Rectangle_1284" data-name="Rectangle 1284" width="29.225" height="24.152" transform="translate(0 0)" fill="none"/>
    </clipPath>
  </defs>
  <g id="Group_3971" data-name="Group 3971" transform="translate(0 0)">
    <g id="Group_3971-2" data-name="Group 3971" transform="translate(0 0)" clip-path="url(#clip-path)">
      <path id="Path_65" data-name="Path 65" d="M25.305,70.064H3.919A3.681,3.681,0,0,1,0,66.691V61.462a.964.964,0,0,1,1.929,0v5.229c0,.783.911,1.444,1.99,1.444H25.305c1.079,0,1.991-.661,1.991-1.444V61.462a.964.964,0,0,1,1.929,0v5.229A3.681,3.681,0,0,1,25.305,70.064Z" transform="translate(0 -45.912)" fill="#00a19b"/>
      <path id="Path_66" data-name="Path 66" d="M44.305,54.777h-.026a.964.964,0,0,1-.742-.381l-3.963-5.227A.964.964,0,1,1,41.111,48l3.236,4.269,3.567-4.209a.964.964,0,0,1,1.472,1.247l-4.344,5.127A.964.964,0,0,1,44.305,54.777Z" transform="translate(-29.884 -36.139)" fill="#00a19b"/>
      <path id="Line_78" data-name="Line 78" d="M-3.036,13.14A.964.964,0,0,1-4,12.176V-3.036A.964.964,0,0,1-3.036-4a.964.964,0,0,1,.964.964V12.176A.964.964,0,0,1-3.036,13.14Z" transform="translate(17.704 4)" fill="#00a19b"/>
    </g>
  </g>
</svg>
