<svg width="28" height="28" viewBox="0 0 28 28" fill="none" xmlns="http://www.w3.org/2000/svg">
<path d="M26.3376 14.7875L13.2126 1.6625C12.7745 1.1375 12.0756 0.875 11.3751 0.875H2.62561C1.13755 0.875 0.000610352 2.01194 0.000610352 3.5V12.2494C0.000610352 12.95 0.26311 13.6489 0.78811 14.0869L13.9131 27.2119C14.4381 27.7369 15.1387 27.9994 15.7506 27.9994C16.3626 27.9994 17.0631 27.7369 17.5881 27.2119L26.3376 18.4625C27.3876 17.4994 27.3876 15.7506 26.3376 14.7875ZM6.12505 8.75C5.16199 8.75 4.37449 7.9625 4.37449 6.99944C4.37449 6.03638 5.16199 5.24888 6.12505 5.24888C7.08811 5.24888 7.87561 6.03638 7.87561 6.99944C7.87561 7.9625 7.08811 8.75 6.12505 8.75Z" fill="white"/>
</svg>
