<svg xmlns="http://www.w3.org/2000/svg" width="426.79" height="449.972" viewBox="0 0 426.79 449.972">
  <g id="Group_18085" data-name="Group 18085" transform="translate(-33.86 -33.4)">
    <rect id="Rectangle_1682" data-name="Rectangle 1682" width="223.32" height="305.78" rx="7.2" transform="translate(59.52 47.02)" fill="#f5f5f5"/>
    <g id="Group_18042" data-name="Group 18042">
      <path id="Path_6976" data-name="Path 6976" d="M445.24,65.24l.42,2.12-4.21,22.75h0a13.577,13.577,0,0,1-10.49,2.4l-23.8-4.4s-3.78-.84-2.73-5.76c0,0,.19-2.59,2.41-2.76,0,0-4.61-1.87-4.1-5.43s3.13-3.51,3.13-3.51-4.32-1.09-3.87-5.09,2.78-4.01,2.78-4.01-5.03-1.22-3.77-5.66a4.568,4.568,0,0,1,5.58-3.35l16.93,3.13,14.84,2.74a8.63,8.63,0,0,1,6.89,6.81Z" fill="#ebebeb"/>
      <path id="Path_6977" data-name="Path 6977" d="M441.04,59.42s-5.21-4.72-7.05-9.85a25.36,25.36,0,0,1-1.24-7.92c.04-.2.34-1.99.59-3.46a2.28,2.28,0,0,0-1.77-2.6,7.45,7.45,0,0,0-8.24,5.46c-1.98,6.82-.29,11.47-.23,13.54l.06,2.08,17.87,2.76Z" fill="#ebebeb"/>
      <rect id="Rectangle_1683" data-name="Rectangle 1683" width="16.9" height="34.35" transform="matrix(-0.983, -0.182, 0.182, -0.983, 454.392, 96.601)" fill="#ebebeb"/>
      <path id="Path_6978" data-name="Path 6978" d="M437.78,93.51s1.33-7.57,3.06-16.9,3.15-16.88,3.19-16.88-1.33,7.57-3.06,16.9-3.15,16.88-3.19,16.87Z" fill="#e0e0e0"/>
      <path id="Path_6979" data-name="Path 6979" d="M454.4,96.59s1.33-7.57,3.06-16.9,3.15-16.88,3.19-16.88-1.33,7.57-3.06,16.9-3.15,16.88-3.19,16.87Z" fill="#e0e0e0"/>
      <path id="Path_6980" data-name="Path 6980" d="M448.46,68.56a3.168,3.168,0,1,0,3.69-2.54A3.168,3.168,0,0,0,448.46,68.56Z" fill="#fff"/>
      <path id="Path_6981" data-name="Path 6981" d="M419.61,54.97s1.82.27,4.06.68,4.04.78,4.04.81-1.82-.27-4.06-.68S419.61,55,419.61,54.97Z" fill="#e0e0e0"/>
      <path id="Path_6982" data-name="Path 6982" d="M405.49,70.76s1.17.15,2.6.41,2.58.51,2.58.54a25.974,25.974,0,0,1-2.6-.41C406.64,71.04,405.49,70.79,405.49,70.76Z" fill="#e0e0e0"/>
      <path id="Path_6983" data-name="Path 6983" d="M404.46,61.42s1.66.24,3.68.61,3.67.71,3.66.74-1.66-.24-3.68-.61S404.45,61.45,404.46,61.42Z" fill="#e0e0e0"/>
      <path id="Path_6984" data-name="Path 6984" d="M405.79,79.45s1.66.24,3.68.61,3.67.71,3.66.74-1.66-.24-3.68-.61S405.78,79.48,405.79,79.45Z" fill="#e0e0e0"/>
      <path id="Path_6985" data-name="Path 6985" d="M447.76,61.42s2.33.36,5.2.89,5.18.99,5.18,1.02-2.33-.36-5.2-.89S447.76,61.45,447.76,61.42Z" fill="#fff"/>
      <path id="Path_6986" data-name="Path 6986" d="M403.58,67.28s-.03-.07-.07-.19a3.53,3.53,0,0,1-.11-1.38,4.414,4.414,0,0,1,.22-1,4.629,4.629,0,0,1,.45-.92,4.1,4.1,0,0,1,.52-.65,2.7,2.7,0,0,1,.43-.36c.11-.07.17-.11.18-.1s-.22.19-.54.53a4.764,4.764,0,0,0-.49.65,4.906,4.906,0,0,0-.43.89,5.176,5.176,0,0,0-.22.97,4.522,4.522,0,0,0-.02.81c.03.46.12.74.09.75Z" fill="#fff"/>
      <path id="Path_6987" data-name="Path 6987" d="M402.7,58.27a1.4,1.4,0,0,1-.33-.43,2.612,2.612,0,0,1-.3-1.27,2.547,2.547,0,0,1,.35-1.26,1.29,1.29,0,0,1,.35-.42c.02.02-.12.17-.26.46a2.833,2.833,0,0,0-.3,1.22,3.18,3.18,0,0,0,.25,1.23,5.26,5.26,0,0,1,.25.47Z" fill="#fff"/>
      <path id="Path_6988" data-name="Path 6988" d="M404.82,76.97a1.53,1.53,0,0,1-.46-.42,2.253,2.253,0,0,1,.04-2.83,1.349,1.349,0,0,1,.47-.4c.01.02-.18.16-.4.46a2.4,2.4,0,0,0-.46,1.35,2.437,2.437,0,0,0,.42,1.36c.21.31.4.45.39.47Z" fill="#fff"/>
      <path id="Path_6989" data-name="Path 6989" d="M406.72,85.61a1.86,1.86,0,0,1-.32-.45,3.041,3.041,0,0,1-.31-1.31,2.946,2.946,0,0,1,.3-1.31,1.555,1.555,0,0,1,.32-.46c.02.01-.1.19-.23.5a3.29,3.29,0,0,0,.01,2.54c.13.31.25.48.24.49Z" fill="#fff"/>
      <path id="Path_6990" data-name="Path 6990" d="M423.53,48.94s-.05-.13-.12-.38c-.03-.12-.07-.27-.11-.45s-.08-.38-.11-.6a11.738,11.738,0,0,1-.13-1.59,13.572,13.572,0,0,1,.13-1.95,12.078,12.078,0,0,1,.44-1.9,10.407,10.407,0,0,1,.58-1.48,5.585,5.585,0,0,1,.28-.55,4.337,4.337,0,0,1,.23-.4,1.843,1.843,0,0,1,.22-.33,3.274,3.274,0,0,1-.17.35c-.06.11-.13.25-.21.41s-.17.34-.26.55a14.844,14.844,0,0,0-.55,1.48,13.552,13.552,0,0,0-.42,1.89,13.215,13.215,0,0,0-.13,1.93,12.12,12.12,0,0,0,.1,1.58c.02.22.06.42.09.6s.06.33.08.45c.05.25.07.39.07.39Z" fill="#fff"/>
    </g>
    <g id="Group_18043" data-name="Group 18043">
      <path id="Path_6991" data-name="Path 6991" d="M419.5,273.29l1.13,1.29,6.12,17.26h0a10.739,10.739,0,0,1-6.24,5.8l-18.06,6.4s-2.93.92-4.15-2.87c0,0-.9-1.85.56-2.85,0,0-3.9.54-4.96-2.1s.76-3.64.76-3.64-3.39.96-4.67-1.96.32-3.85.32-3.85-3.93,1.15-4.82-2.39a3.614,3.614,0,0,1,2.5-4.5l12.84-4.55,11.26-3.99a6.844,6.844,0,0,1,7.42,1.94Z" fill="#ebebeb"/>
      <path id="Path_6992" data-name="Path 6992" d="M414.33,270.96s-5.44-1.17-8.73-3.96a19.948,19.948,0,0,1-3.98-4.94c-.05-.15-.55-1.5-.96-2.61a1.788,1.788,0,0,0-2.24-1.08,5.88,5.88,0,0,0-3.49,7c1.34,5.46,4.34,7.97,5.2,9.38l.86,1.4,13.34-5.18Z" fill="#ebebeb"/>
      <rect id="Rectangle_1684" data-name="Rectangle 1684" width="13.38" height="27.19" transform="translate(438.187 291.193) rotate(160.48)" fill="#ebebeb"/>
      <path id="Path_6993" data-name="Path 6993" d="M425.58,295.63s-2.08-5.72-4.59-12.79-4.52-12.82-4.49-12.83,2.08,5.72,4.59,12.8,4.52,12.82,4.49,12.83Z" fill="#e0e0e0"/>
      <path id="Path_6994" data-name="Path 6994" d="M438.19,291.16s-2.08-5.72-4.59-12.79-4.52-12.82-4.49-12.83,2.08,5.72,4.59,12.8,4.52,12.82,4.49,12.83Z" fill="#e0e0e0"/>
      <path id="Path_6995" data-name="Path 6995" d="M423.03,274.29a2.505,2.505,0,1,0,1.52-3.2A2.5,2.5,0,0,0,423.03,274.29Z" fill="#fff"/>
      <path id="Path_6996" data-name="Path 6996" d="M397.87,276.39s1.36-.54,3.05-1.14,3.08-1.07,3.09-1.04-1.36.54-3.05,1.14S397.88,276.42,397.87,276.39Z" fill="#e0e0e0"/>
      <path id="Path_6997" data-name="Path 6997" d="M394.44,292.8s.86-.36,1.95-.75,1.97-.67,1.98-.65-.86.36-1.95.75S394.45,292.82,394.44,292.8Z" fill="#e0e0e0"/>
      <path id="Path_6998" data-name="Path 6998" d="M390.04,286.81s1.23-.49,2.77-1.04,2.79-.97,2.8-.94-1.23.49-2.77,1.04S390.05,286.84,390.04,286.81Z" fill="#e0e0e0"/>
      <path id="Path_6999" data-name="Path 6999" d="M398.08,298.64s1.23-.49,2.77-1.04,2.79-.97,2.8-.94-1.23.49-2.77,1.04S398.09,298.67,398.08,298.64Z" fill="#e0e0e0"/>
      <path id="Path_7000" data-name="Path 7000" d="M419.73,269.68s1.74-.67,3.92-1.44,3.94-1.37,3.95-1.35-1.74.67-3.92,1.44S419.74,269.7,419.73,269.68Z" fill="#fff"/>
      <path id="Path_7001" data-name="Path 7001" d="M391.75,291.17a1.025,1.025,0,0,1-.13-.1,2.093,2.093,0,0,1-.29-.33,3.568,3.568,0,0,1-.34-.57,4.09,4.09,0,0,1-.25-.77,3.823,3.823,0,0,1-.06-.81,3.563,3.563,0,0,1,.1-.65,2.43,2.43,0,0,1,.15-.42c.05-.09.07-.14.08-.14s-.08.22-.16.58a3.715,3.715,0,0,0-.08.64,4.3,4.3,0,0,0,.06.78,3.883,3.883,0,0,0,.23.75,3.2,3.2,0,0,0,.31.56c.21.3.37.46.36.48Z" fill="#fff"/>
      <path id="Path_7002" data-name="Path 7002" d="M387.58,285.34a1.1,1.1,0,0,1-.4-.16,2.067,2.067,0,0,1-.71-.75,1.985,1.985,0,0,1-.26-1,.887.887,0,0,1,.07-.42c.02,0-.01.16,0,.42a2.188,2.188,0,0,0,.28.95,2.323,2.323,0,0,0,.66.74c.21.15.36.21.35.22Z" fill="#fff"/>
      <path id="Path_7003" data-name="Path 7003" d="M396.44,297.33a1.3,1.3,0,0,1-.48-.1,1.836,1.836,0,0,1-.89-.78,1.865,1.865,0,0,1-.2-1.17.917.917,0,0,1,.17-.46c.02,0-.06.18-.09.47a1.835,1.835,0,0,0,1.05,1.88c.27.13.46.15.45.17Z" fill="#fff"/>
      <path id="Path_7004" data-name="Path 7004" d="M401.16,302.5a1.534,1.534,0,0,1-.4-.18,2.368,2.368,0,0,1-.73-.77,2.266,2.266,0,0,1-.31-1.02,1.177,1.177,0,0,1,.04-.44c.02,0,0,.17.04.43a2.611,2.611,0,0,0,1.01,1.74c.21.16.36.23.36.25Z" fill="#fff"/>
      <path id="Path_7005" data-name="Path 7005" d="M398.18,270.71a2.787,2.787,0,0,1-.23-.21,3.587,3.587,0,0,1-.25-.27c-.09-.11-.2-.23-.31-.37a9.23,9.23,0,0,1-.72-1.04,10.431,10.431,0,0,1-.68-1.38,9.5,9.5,0,0,1-.45-1.48,9.8,9.8,0,0,1-.19-1.25c-.02-.18-.02-.34-.03-.48v-.37a1.091,1.091,0,0,1,.02-.31s.01.11.02.31a2.428,2.428,0,0,0,.02.36c.01.14.02.3.04.48.04.35.11.77.21,1.23a10.22,10.22,0,0,0,1.13,2.83c.24.4.48.76.69,1.04a4.607,4.607,0,0,0,.3.38c.09.11.17.2.24.28a2.517,2.517,0,0,1,.2.24Z" fill="#fff"/>
    </g>
    <g id="Group_18044" data-name="Group 18044">
      <rect id="Rectangle_1685" data-name="Rectangle 1685" width="75.31" height="75.31" rx="13.31" transform="translate(201.37 396.24)" fill="#e0e0e0"/>
      <rect id="Rectangle_1686" data-name="Rectangle 1686" width="75.31" height="75.31" rx="13.31" transform="translate(187.84 396.24)" fill="#ebebeb"/>
      <path id="Path_7006" data-name="Path 7006" d="M199.49,434.98l7.59-7.59,14.63,13.01,24.44-24.53,7.04,7.59-32.56,31.57Z" fill="#fff"/>
    </g>
    <g id="Group_18045" data-name="Group 18045">
      <rect id="Rectangle_1687" data-name="Rectangle 1687" width="58.43" height="58.43" rx="13.31" transform="translate(44.35 412.4)" fill="#e0e0e0"/>
      <rect id="Rectangle_1688" data-name="Rectangle 1688" width="58.43" height="58.43" rx="13.31" transform="translate(33.86 412.4)" fill="#ebebeb"/>
      <path id="Path_7007" data-name="Path 7007" d="M42.9,442.46l5.89-5.89,11.35,10.09,18.95-19.03,5.47,5.89L59.3,458.01Z" fill="#fff"/>
    </g>
    <path id="Path_7008" data-name="Path 7008" d="M446.91,469.11c0,.14-89.96.26-200.9.26s-200.92-.12-200.92-.26,89.94-.26,200.92-.26S446.91,468.97,446.91,469.11Z" fill="#263238"/>
    <g id="Group_18050" data-name="Group 18050">
      <g id="Group_18048" data-name="Group 18048">
        <path id="Path_7009" data-name="Path 7009" d="M406.64,440.46s-4.17-28.66-3.82-45.33-.02-35.43-.02-35.43h1.92s-1.3,33.09.11,53.05c1.41,19.94,5.14,27.71,5.14,27.71h-3.34" fill="#263238"/>
        <path id="Path_7010" data-name="Path 7010" d="M419.06,327.46a5.054,5.054,0,0,0-1.75-2.56c-1.22-.77-2.82-.45-4.18.03-5.8,2.05-10.95,12.87-13.29,18.56l7.7,25.96c13.91-12.9,16.31-29.83,11.51-41.99Z" fill="#455a64"/>
        <path id="Path_7011" data-name="Path 7011" d="M416.86,325.95s-.03.12-.11.34c-.1.25-.22.56-.38.95-.34.82-.81,2-1.38,3.48-1.14,2.95-2.58,7.07-3.87,11.71s-2.17,8.92-2.72,12.03c-.27,1.56-.48,2.82-.61,3.69-.07.41-.12.74-.16,1a1.507,1.507,0,0,1-.08.35,1.952,1.952,0,0,1,.02-.36c.03-.27.06-.6.11-1.01.09-.88.27-2.15.51-3.71a108.642,108.642,0,0,1,2.64-12.08,111.843,111.843,0,0,1,3.97-11.71c.59-1.47,1.1-2.64,1.47-3.45.18-.37.32-.68.43-.92a1.169,1.169,0,0,1,.17-.31Z" fill="#263238"/>
        <path id="Path_7012" data-name="Path 7012" d="M404.12,375.68a23.5,23.5,0,0,1-11.87-19.74c-.28-5.76,1.49-11.41,3.5-16.82a2.141,2.141,0,0,1,.82-1.22,2.07,2.07,0,0,1,1.97.31c5.25,2.99,8.43,8.69,10.12,14.48a29.169,29.169,0,0,1,1.19,11.91,19.8,19.8,0,0,1-5.71,11.08" fill="#455a64"/>
        <path id="Path_7013" data-name="Path 7013" d="M404.12,375.68a3.231,3.231,0,0,1-.03-.35c0-.26-.01-.59-.02-1,0-.86-.04-2.12-.11-3.66a99.6,99.6,0,0,0-1.34-11.99c-.8-4.65-1.77-8.81-2.49-11.82-.35-1.47-.64-2.68-.85-3.56-.09-.39-.16-.72-.22-.97a1.448,1.448,0,0,1-.06-.34,1.677,1.677,0,0,1,.12.33c.07.25.17.57.28.96.24.83.57,2.04.95,3.54.77,3,1.78,7.16,2.58,11.82a87.206,87.206,0,0,1,1.25,12.04c.04,1.55.04,2.8,0,3.67l-.04,1c-.01.23-.02.35-.04.35Z" fill="#263238"/>
        <g id="Group_18046" data-name="Group 18046" opacity="0.3">
          <path id="Path_7014" data-name="Path 7014" d="M404.12,375.68a23.5,23.5,0,0,1-11.87-19.74c-.28-5.76,1.49-11.41,3.5-16.82a2.141,2.141,0,0,1,.82-1.22,2.07,2.07,0,0,1,1.97.31c5.25,2.99,8.43,8.69,10.12,14.48a29.169,29.169,0,0,1,1.19,11.91,19.8,19.8,0,0,1-5.71,11.08"/>
        </g>
        <path id="Path_7015" data-name="Path 7015" d="M412.27,419.52c7.11,1.56,12.96,6.57,19.82,9.01,4.54,1.61,9.67,2.18,13.29,5.36-.87-2.19-2.93-3.66-4.93-4.91a88.636,88.636,0,0,0-17.96-8.57c-3.23-1.11-6.73-2.04-10.01-1.13" fill="#455a64"/>
        <path id="Path_7016" data-name="Path 7016" d="M401.99,425.86c-8.9-.14-18.27-7.72-27.13-8.17,9.27-2.99,22.55-.55,27.13,8.17" fill="#455a64"/>
        <path id="Path_7017" data-name="Path 7017" d="M405.47,404.5a28.936,28.936,0,0,1,14.23-.97,86.222,86.222,0,0,1,13.89,3.78c-.46-3.09-2.96-5.41-5.31-7.47a37.287,37.287,0,0,0-5.58-4.29,12.463,12.463,0,0,0-6.69-1.89,10.563,10.563,0,0,0-7.38,3.72,12.2,12.2,0,0,0-3.16,7.11" fill="#455a64"/>
        <path id="Path_7018" data-name="Path 7018" d="M387.2,394.68c-5.6-4.78-14.09-4.32-21.46-4.15a175,175,0,0,1,33.28,20.74C399.32,406.06,394.28,400.73,387.2,394.68Z" fill="#455a64"/>
        <g id="Group_18047" data-name="Group 18047" opacity="0.3">
          <path id="Path_7019" data-name="Path 7019" d="M387.2,394.68c-5.6-4.78-14.09-4.32-21.46-4.15a175,175,0,0,1,33.28,20.74C399.32,406.06,394.28,400.73,387.2,394.68Z"/>
        </g>
        <path id="Path_7020" data-name="Path 7020" d="M407.99,388.07a62.352,62.352,0,0,1,8.62-5.01c2.95-1.34,5.7-3.47,8.55-5.02,3.69-2,6.89-4.78,10.28-7.26s7.11-4.72,11.26-5.37a22.123,22.123,0,0,0-10.25.59,66.195,66.195,0,0,0-9.65,3.75c-4.37,1.97-8.82,3.99-12.39,7.18s-6.8,6.35-6.42,11.13" fill="#455a64"/>
        <path id="Path_7021" data-name="Path 7021" d="M431.92,425.86a1.98,1.98,0,0,1-.28-.12c-.21-.11-.47-.24-.78-.4-.67-.36-1.63-.89-2.84-1.49-.6-.32-1.26-.65-1.99-.99-.71-.35-1.49-.7-2.31-1.06a34.433,34.433,0,0,0-5.48-1.91,11.691,11.691,0,0,0-5.71-.14,16.847,16.847,0,0,0-2.42.72,12.669,12.669,0,0,0-1.95,1,12.259,12.259,0,0,0-2.45,2.03c-.52.55-.77.89-.79.87a2.444,2.444,0,0,1,.16-.26,6.887,6.887,0,0,1,.54-.69,11.313,11.313,0,0,1,2.42-2.13,12.511,12.511,0,0,1,1.97-1.06,16.376,16.376,0,0,1,2.45-.76,11.879,11.879,0,0,1,5.85.12,32.52,32.52,0,0,1,5.53,1.95c.82.36,1.6.73,2.31,1.09s1.38.69,1.97,1.02c1.2.64,2.15,1.2,2.8,1.59l.75.45c.17.11.26.17.25.18Z" fill="#263238"/>
        <path id="Path_7022" data-name="Path 7022" d="M395.35,421.45a4.556,4.556,0,0,1,.56.16,12.475,12.475,0,0,1,1.45.63,17.53,17.53,0,0,1,4.25,3.02,17.3,17.3,0,0,1,3.18,4.13,15.465,15.465,0,0,1,.69,1.42,2.168,2.168,0,0,1,.19.55c-.05.02-.38-.73-1.07-1.86a19.761,19.761,0,0,0-7.35-7.06c-1.16-.64-1.92-.94-1.9-.99Z" fill="#263238"/>
        <path id="Path_7023" data-name="Path 7023" d="M375.66,394.23s.13.03.38.11l1.07.38c.47.18,1.04.38,1.68.62.66.24,1.37.6,2.18.96a51.356,51.356,0,0,1,11.59,7.38,56.881,56.881,0,0,1,5.4,5.32,60.761,60.761,0,0,1,3.84,4.86c1.02,1.44,1.79,2.64,2.31,3.47.25.39.45.71.61.95a2.184,2.184,0,0,1,.2.34,2.692,2.692,0,0,1-.25-.31c-.16-.21-.38-.52-.66-.92-.56-.81-1.36-1.99-2.39-3.41s-2.34-3.06-3.87-4.8a57.667,57.667,0,0,0-5.39-5.27,53.982,53.982,0,0,0-11.48-7.42c-.8-.37-1.5-.74-2.15-1s-1.19-.48-1.66-.67c-.43-.18-.78-.32-1.05-.44a1.929,1.929,0,0,1-.36-.17Z" fill="#263238"/>
        <path id="Path_7024" data-name="Path 7024" d="M418.82,399.5a5.79,5.79,0,0,1-.71-.09l-.82-.15c-.32-.06-.69-.06-1.09-.1a11.194,11.194,0,0,0-6.12,1.21,10.9,10.9,0,0,0-2.78,2.07,12.675,12.675,0,0,0-1.79,2.21,17.191,17.191,0,0,0-1.22,2.34,2.341,2.341,0,0,1,.18-.69,9.962,9.962,0,0,1,.85-1.76,11.951,11.951,0,0,1,1.77-2.3,10.823,10.823,0,0,1,9.13-3.29c.41.06.78.07,1.1.15.3.08.57.14.82.21a3.187,3.187,0,0,1,.68.21Z" fill="#263238"/>
        <path id="Path_7025" data-name="Path 7025" d="M427.77,371.75a3.919,3.919,0,0,1-.34.21q-.39.21-.99.54c-.86.47-2.11,1.15-3.62,2.04s-3.27,2.01-5.16,3.36a43.3,43.3,0,0,0-5.76,4.82,14.56,14.56,0,0,0-2.35,3.05c-.58,1.12-1.14,2.2-1.65,3.24a57.815,57.815,0,0,0-2.47,5.63,34.245,34.245,0,0,0-1.2,3.96c-.23.95-.31,1.49-.34,1.48a1.622,1.622,0,0,1,.04-.39c.03-.26.09-.64.18-1.12a29.55,29.55,0,0,1,1.11-4.01,53.565,53.565,0,0,1,2.42-5.68c.51-1.05,1.06-2.13,1.64-3.26a14.824,14.824,0,0,1,2.4-3.13,40.985,40.985,0,0,1,5.82-4.84c1.9-1.34,3.69-2.43,5.21-3.31s2.79-1.53,3.67-1.96c.42-.2.76-.36,1.02-.49a1.646,1.646,0,0,1,.37-.15Z" fill="#263238"/>
        <path id="Path_7026" data-name="Path 7026" d="M402.81,398.7s-.08-.26-.18-.75c-.1-.55-.23-1.24-.39-2.06a59.559,59.559,0,0,0-1.68-6.68,58.7,58.7,0,0,0-2.54-6.4c-.35-.76-.64-1.4-.87-1.91a5.157,5.157,0,0,1-.29-.72,4.475,4.475,0,0,1,.4.66c.24.43.57,1.07.96,1.86a43.831,43.831,0,0,1,4.24,13.14c.14.88.24,1.58.29,2.08a2.645,2.645,0,0,1,.05.77Z" fill="#263238"/>
        <path id="Path_7027" data-name="Path 7027" d="M402.17,378.45a24.2,24.2,0,0,0-2.89-9.61,31.711,31.711,0,0,0-21.5-16.03q9.96,14.835,19.91,29.67l2.57,5.3a15.275,15.275,0,0,0,1.92-9.32Z" fill="#455a64"/>
      </g>
      <g id="Group_18049" data-name="Group 18049">
        <rect id="Rectangle_1689" data-name="Rectangle 1689" width="46.29" height="8.2" transform="translate(384.43 436.92)" fill="#205040"/>
        <path id="Path_7028" data-name="Path 7028" d="M387.89,443.5l3.94,25.45h30.73l4.7-25.45Z" fill="#59ce93"/>
        <path id="Path_7029" data-name="Path 7029" d="M430.7,445.13c0,.09-10.44.16-23.32.16s-23.32-.07-23.32-.16,10.44-.16,23.32-.16S430.7,445.04,430.7,445.13Z" fill="#263238"/>
      </g>
    </g>
    <g id="Group_18051" data-name="Group 18051">
      <rect id="Rectangle_1690" data-name="Rectangle 1690" width="67.68" height="67.68" rx="13.31" transform="translate(88.77 401.42)" fill="#ff725e"/>
      <rect id="Rectangle_1691" data-name="Rectangle 1691" width="67.68" height="67.68" rx="13.31" transform="translate(88.77 401.42)" fill="#205040"/>
      <rect id="Rectangle_1692" data-name="Rectangle 1692" width="67.68" height="67.68" rx="13.31" transform="translate(76.62 401.42)" fill="#59ce93"/>
      <path id="Path_7030" data-name="Path 7030" d="M87.09,436.24l6.82-6.82,13.15,11.69,21.95-22.04,6.33,6.82-29.26,28.37Z" fill="#fff"/>
    </g>
    <g id="Group_18052" data-name="Group 18052">
      <rect id="Rectangle_1693" data-name="Rectangle 1693" width="43.29" height="43.29" rx="8.23" transform="translate(143.62 425.81)" fill="#263238"/>
      <rect id="Rectangle_1694" data-name="Rectangle 1694" width="43.29" height="43.29" rx="8.23" transform="translate(135.85 425.81)" fill="#455a64"/>
      <path id="Path_7031" data-name="Path 7031" d="M142.55,448.08l4.36-4.36,8.41,7.48,14.05-14.1,4.05,4.36L154.7,459.61Z" fill="#fff"/>
    </g>
    <g id="Group_18062" data-name="Group 18062">
      <g id="Group_18053" data-name="Group 18053">
        <rect id="Rectangle_1695" data-name="Rectangle 1695" width="223.32" height="305.78" rx="7.2" transform="translate(69.57 33.66)" fill="#fff"/>
        <path id="Path_7032" data-name="Path 7032" d="M285.69,339.44a7.789,7.789,0,0,0,2.63-.53,7.184,7.184,0,0,0,4.49-5.99c.05-6.95-.01-17.24-.01-30.47-.02-26.47-.05-64.76-.08-112.07,0-23.66-.02-49.57-.03-77.39q0-20.865-.01-43.11V41.6a7.207,7.207,0,0,0-1.64-5.22,6.983,6.983,0,0,0-4.88-2.46c-1.91-.05-3.88-.01-5.83-.02-62.56,0-131.33.01-203.52.02a6.967,6.967,0,0,0-5.6,2.83,6.732,6.732,0,0,0-1.26,2.96,24.211,24.211,0,0,0-.1,3.32v91.91c0,34.05-.01,66.88-.02,98.17s-.02,61.01-.02,88.83v10.34a7,7,0,0,0,5.91,6.87,16.85,16.85,0,0,0,2.47.09H95.43c12.91,0,25.31.01,37.13.02,47.31.03,85.6.06,112.06.08,13.23.02,23.5.04,30.47.05,3.48.01,6.13.02,7.92.03s2.7.03,2.7.03-.91.02-2.7.03-4.44.01-7.92.03c-6.97.01-17.24.03-30.47.05-26.46.02-64.75.05-112.06.08q-17.745,0-37.13.02H78.19a15.593,15.593,0,0,1-2.54-.1,7.3,7.3,0,0,1-4.46-2.47,7.488,7.488,0,0,1-1.81-4.81V321.94c0-27.82-.02-57.55-.02-88.83s0-64.12-.02-98.17V43.03a24.393,24.393,0,0,1,.11-3.4,7.238,7.238,0,0,1,1.35-3.19,7.479,7.479,0,0,1,6.02-3.04c72.19,0,140.96.01,203.52.02,1.96.01,3.89-.02,5.86.03a7.449,7.449,0,0,1,5.21,2.63,7.7,7.7,0,0,1,1.74,5.52V69.88q0,22.23-.01,43.11c-.01,27.82-.02,53.73-.03,77.39-.03,47.31-.06,85.6-.08,112.07-.03,13.23,0,23.5-.08,30.48a7.238,7.238,0,0,1-1.85,4.16,7.08,7.08,0,0,1-2.72,1.88,6.816,6.816,0,0,1-1.97.46c-.45.02-.68.02-.68.02Z" fill="#263238"/>
      </g>
      <g id="Group_18055" data-name="Group 18055">
        <rect id="Rectangle_1696" data-name="Rectangle 1696" width="111.6" height="13.21" rx="6.3" transform="translate(146.75 124.61)" fill="#e0e0e0"/>
        <g id="Group_18054" data-name="Group 18054">
          <rect id="Rectangle_1697" data-name="Rectangle 1697" width="30.6" height="30.6" rx="5.14" transform="translate(104.11 116.73)" fill="#59ce93"/>
          <path id="Path_7033" data-name="Path 7033" d="M108.84,132.48l3.09-3.09,5.94,5.29,9.93-9.97,2.86,3.08-13.23,12.83Z" fill="#fff"/>
        </g>
      </g>
      <g id="Group_18057" data-name="Group 18057">
        <rect id="Rectangle_1698" data-name="Rectangle 1698" width="111.6" height="13.21" rx="6.3" transform="translate(146.75 172.08)" fill="#e0e0e0"/>
        <g id="Group_18056" data-name="Group 18056">
          <rect id="Rectangle_1699" data-name="Rectangle 1699" width="30.6" height="30.6" rx="5.14" transform="translate(104.11 164.21)" fill="#59ce93"/>
          <path id="Path_7034" data-name="Path 7034" d="M108.84,179.95l3.09-3.08,5.94,5.28,9.93-9.96,2.86,3.08L117.43,188.1Z" fill="#fff"/>
        </g>
      </g>
      <g id="Group_18059" data-name="Group 18059">
        <rect id="Rectangle_1700" data-name="Rectangle 1700" width="111.6" height="13.21" rx="6.3" transform="translate(146.75 219.56)" fill="#e0e0e0"/>
        <g id="Group_18058" data-name="Group 18058">
          <rect id="Rectangle_1701" data-name="Rectangle 1701" width="30.6" height="30.6" rx="5.14" transform="translate(104.11 211.68)" fill="#59ce93"/>
          <path id="Path_7035" data-name="Path 7035" d="M108.84,227.42l3.09-3.08,5.94,5.29,9.93-9.97,2.86,3.08-13.23,12.83Z" fill="#fff"/>
        </g>
      </g>
      <g id="Group_18061" data-name="Group 18061">
        <rect id="Rectangle_1702" data-name="Rectangle 1702" width="111.6" height="13.21" rx="6.3" transform="translate(146.75 267.03)" fill="#e0e0e0"/>
        <g id="Group_18060" data-name="Group 18060">
          <rect id="Rectangle_1703" data-name="Rectangle 1703" width="30.6" height="30.6" rx="5.14" transform="translate(104.11 259.16)" fill="#59ce93"/>
          <path id="Path_7036" data-name="Path 7036" d="M108.84,274.9l3.09-3.08,5.94,5.28,9.93-9.97,2.86,3.09-13.23,12.83Z" fill="#fff"/>
        </g>
      </g>
    </g>
    <g id="Group_18084" data-name="Group 18084">
      <g id="Group_18068" data-name="Group 18068">
        <g id="Group_18066" data-name="Group 18066">
          <g id="Group_18063" data-name="Group 18063">
            <path id="Path_7037" data-name="Path 7037" d="M332.21,433.79l-.86,22.58s22.66,8.45,22.91,12.64l-43.83-.09-.11-35.23,21.89.11Z" fill="#263238"/>
            <path id="Path_7038" data-name="Path 7038" d="M317.8,454.43a1.781,1.781,0,0,0-1.24,2.04,1.721,1.721,0,0,0,2.01,1.25,1.893,1.893,0,0,0,1.3-2.17,1.793,1.793,0,0,0-2.24-1.07" fill="#e0e0e0"/>
            <path id="Path_7039" data-name="Path 7039" d="M310.42,468.91l.13-3.55,41.98,1.42s1.95.85,1.73,2.23l-43.83-.09Z" fill="#455a64"/>
            <path id="Path_7040" data-name="Path 7040" d="M332.06,456.14c0,.21-1.08.31-2.13.99-1.07.66-1.62,1.58-1.81,1.5-.2-.04.12-1.32,1.42-2.13,1.28-.82,2.58-.56,2.53-.37Z" fill="#fff"/>
            <path id="Path_7041" data-name="Path 7041" d="M336.65,458.05c.05.21-.88.57-1.61,1.47-.76.88-.94,1.86-1.15,1.85-.2.03-.35-1.22.58-2.33s2.18-1.2,2.18-1Z" fill="#fff"/>
            <path id="Path_7042" data-name="Path 7042" d="M339.25,463.56c-.19.05-.49-1.02.06-2.2s1.55-1.64,1.64-1.46c.12.18-.53.8-.97,1.77-.46.96-.52,1.86-.74,1.88Z" fill="#fff"/>
            <path id="Path_7043" data-name="Path 7043" d="M331.69,450.97c-.09.2-1.07-.1-2.28-.02-1.21.06-2.15.46-2.27.28-.12-.16.8-.95,2.22-1.02s2.43.6,2.32.77Z" fill="#fff"/>
          </g>
          <g id="Group_18065" data-name="Group 18065">
            <path id="Path_7044" data-name="Path 7044" d="M278.55,430.71l-2.37,27.23,4.33,22.08a2.809,2.809,0,0,1-2.4,3.32h0a2.8,2.8,0,0,1-2.41-.88c-3.91-4.26-18.2-20-17.91-21.98.33-2.3.6-28.89.6-28.89l20.16-.88Z" fill="#263238"/>
            <path id="Path_7045" data-name="Path 7045" d="M278.11,483.34l-20.21-24.7-.07,1.16a4.217,4.217,0,0,0,.82,2.79c1.6,2.15,6.15,7.98,16.97,19.87a2.809,2.809,0,0,0,2.49.88Z" fill="#455a64"/>
            <g id="Group_18064" data-name="Group 18064" opacity="0.6">
              <path id="Path_7046" data-name="Path 7046" d="M264.07,450.2a1.7,1.7,0,0,1,.32,2.24,1.642,1.642,0,0,1-2.22.34,1.789,1.789,0,0,1-.33-2.37,1.7,1.7,0,0,1,2.34-.1" fill="#fff"/>
            </g>
            <path id="Path_7047" data-name="Path 7047" d="M272.64,471.02a6.048,6.048,0,0,1,5.71-2.37c.03-.07-.3-.3-.94-.43a4.381,4.381,0,0,0-2.47.28,4.333,4.333,0,0,0-1.94,1.56c-.35.54-.42.94-.36.97Z" fill="#fff"/>
            <path id="Path_7048" data-name="Path 7048" d="M274.35,474.8a24.437,24.437,0,0,1,2.49-1.02,22.179,22.179,0,0,1,2.69-.17c.09-.13-1.19-.8-2.82-.41C275.07,473.57,274.22,474.72,274.35,474.8Z" fill="#fff"/>
            <path id="Path_7049" data-name="Path 7049" d="M269.33,466.11c.12.14,1.55-1.15,3.74-1.83,2.18-.72,4.09-.5,4.11-.68a7.666,7.666,0,0,0-7.85,2.51Z" fill="#fff"/>
            <path id="Path_7050" data-name="Path 7050" d="M269.36,457.77c.06.17,1.61-.36,3.58-.31,1.97.03,3.49.63,3.56.46a5.383,5.383,0,0,0-3.55-1.06A5.469,5.469,0,0,0,269.36,457.77Z" fill="#fff"/>
            <path id="Path_7051" data-name="Path 7051" d="M269.85,449.76a13.435,13.435,0,0,1,3.71-.42c2.07.18,3.45,1.29,3.56,1.14.05-.05-.23-.42-.83-.82a6.012,6.012,0,0,0-2.67-.92,5.931,5.931,0,0,0-2.79.38c-.67.28-1.01.58-.98.64Z" fill="#fff"/>
            <path id="Path_7052" data-name="Path 7052" d="M273.61,447.81a3.263,3.263,0,0,0,.1-1.03,7.2,7.2,0,0,0-.65-2.75,3.175,3.175,0,0,0-1.27-1.61,1.114,1.114,0,0,0-1.28.17,1.857,1.857,0,0,0-.51,1.2,3.975,3.975,0,0,0,3.23,3.88,4.579,4.579,0,0,0,4.65-2.11,1.623,1.623,0,0,0,.16-1.32,1.11,1.11,0,0,0-1.12-.66,3.9,3.9,0,0,0-1.86.82,8.1,8.1,0,0,0-2,2,2.379,2.379,0,0,0-.48.92,12.786,12.786,0,0,1,2.71-2.56,3.578,3.578,0,0,1,1.64-.67.606.606,0,0,1,.61.35,1.08,1.08,0,0,1-.16.86,4.106,4.106,0,0,1-4.06,1.78,3.448,3.448,0,0,1-2.79-3.25,1.36,1.36,0,0,1,.32-.86.618.618,0,0,1,.71-.1,2.853,2.853,0,0,1,1.1,1.34,10.957,10.957,0,0,1,.93,3.6Z" fill="#fff"/>
          </g>
          <path id="Path_7053" data-name="Path 7053" d="M353.32,243.47a97.261,97.261,0,0,1,2.12,28.55c-.47,6.07-20.94,173.89-20.94,173.89H306.86l7.77-157.73-2.26.49s-15.09,67.27-16.32,78.16c-1.11,9.79-13.83,80.91-13.83,80.91l-25.27.29,8.07-94.08,9.39-90.27,3.53-26.28,75.38,6.06Z" fill="#263238"/>
        </g>
        <g id="Group_18067" data-name="Group 18067">
          <path id="Path_7054" data-name="Path 7054" d="M313.63,277.47a.938.938,0,0,0,.18.19,1.9,1.9,0,0,0,.67.32,3.147,3.147,0,0,0,2.62-.62,5.214,5.214,0,0,0,1.79-3.57c.2-1.5.23-3.12.34-4.83.19-3.41.32-6.51.4-8.74a23.055,23.055,0,0,0,0-3.63,24.766,24.766,0,0,0-.39,3.61c-.17,2.23-.37,5.32-.55,8.74-.11,1.7-.13,3.35-.29,4.79a4.914,4.914,0,0,1-1.53,3.34,3.053,3.053,0,0,1-2.34.72,4.987,4.987,0,0,1-.9-.3Z" fill="#455a64"/>
          <path id="Path_7055" data-name="Path 7055" d="M272.97,261.24a4.031,4.031,0,0,0,.77.28,12.463,12.463,0,0,0,2.21.37,15.914,15.914,0,0,0,13.3-5.34,12.554,12.554,0,0,0,1.34-1.8,2.681,2.681,0,0,0,.37-.74c-.08-.05-.69.94-1.98,2.27a17.023,17.023,0,0,1-13,5.22c-1.85-.07-2.99-.36-3.01-.27Z" fill="#455a64"/>
          <path id="Path_7056" data-name="Path 7056" d="M342.31,254.22a9.284,9.284,0,0,0,.42,2.77,20.806,20.806,0,0,0,7.4,11.14,8.941,8.941,0,0,0,2.4,1.46,29.61,29.61,0,0,1-6.57-6.72c-2.94-4.36-3.47-8.72-3.65-8.66Z" fill="#455a64"/>
        </g>
      </g>
      <g id="Group_18069" data-name="Group 18069">
        <path id="Path_7057" data-name="Path 7057" d="M426.74,206.74l6.34,2,11.52-6.37,6.54,18.21-15.68,3.73L423.58,223Z" fill="#ae7461"/>
        <path id="Path_7058" data-name="Path 7058" d="M352.96,133.64s6.48,3.89,11.85,17.11c10.54,25.97,17.17,39.98,17.17,39.98l48.4,15.29-3.87,19.4s-49.06-6.84-55.63-9.3c-8.99-3.37-15.65-21.1-15.65-21.1l-2.26-61.38Z" fill="#e0e0e0"/>
      </g>
      <g id="Group_18073" data-name="Group 18073">
        <g id="Group_18072" data-name="Group 18072">
          <path id="Path_7059" data-name="Path 7059" d="M339.66,75.39a5.1,5.1,0,0,0,1.66-10.02,5.313,5.313,0,0,0-5.08-8.71,6.358,6.358,0,0,0-9.84-4.72,7.136,7.136,0,0,0-8.8.27,5.088,5.088,0,0,0-4.04,8.85" fill="#263238"/>
          <g id="Group_18071" data-name="Group 18071">
            <g id="Group_18070" data-name="Group 18070">
              <path id="Path_7060" data-name="Path 7060" d="M316.76,57.29l1.12-.06a21.66,21.66,0,0,1,22.56,18.83c1.36,10.41,2.73,21.94,2.94,27.55.43,11.62-11.09,14-11.09,14l1.68,13.9-28.23.53-5.01-50.48c-1.64-12.01,3.98-22.97,16.03-24.28Z" fill="#faddbe"/>
              <path id="Path_7061" data-name="Path 7061" d="M332.39,117.6a28.257,28.257,0,0,1-15.44-3.7s3.99,8.18,15.53,6.56Z" fill="#f7c99d"/>
              <path id="Path_7062" data-name="Path 7062" d="M336.26,86.78a1.658,1.658,0,0,1-1.52,1.75,1.588,1.588,0,0,1-1.78-1.41,1.657,1.657,0,0,1,1.51-1.75,1.6,1.6,0,0,1,1.79,1.41Z" fill="#263238"/>
              <path id="Path_7063" data-name="Path 7063" d="M338.23,81.87c-.19.23-1.5-.64-3.28-.55-1.78.07-3.05,1.05-3.25.84-.1-.09.09-.49.64-.94a4.564,4.564,0,0,1,2.59-.94,4.337,4.337,0,0,1,2.63.71c.57.39.77.78.68.88Z" fill="#263238"/>
              <path id="Path_7064" data-name="Path 7064" d="M319.98,87.23a1.658,1.658,0,0,1-1.52,1.75,1.588,1.588,0,0,1-1.78-1.41,1.657,1.657,0,0,1,1.51-1.75,1.6,1.6,0,0,1,1.79,1.41Z" fill="#263238"/>
              <path id="Path_7065" data-name="Path 7065" d="M320.7,83.08c-.19.23-1.5-.64-3.28-.55-1.78.07-3.05,1.05-3.25.84-.1-.09.09-.49.64-.94a4.564,4.564,0,0,1,2.59-.94,4.337,4.337,0,0,1,2.63.71c.57.39.77.78.68.88Z" fill="#263238"/>
              <path id="Path_7066" data-name="Path 7066" d="M327.83,95.99a11.951,11.951,0,0,1,2.87-.67c.45-.07.88-.18.94-.5a2.328,2.328,0,0,0-.37-1.34c-.48-1.08-.99-2.22-1.52-3.4-2.12-4.85-3.67-8.84-3.48-8.93s2.07,3.78,4.19,8.63c.51,1.2,1,2.34,1.46,3.43a2.686,2.686,0,0,1,.33,1.78,1.135,1.135,0,0,1-.72.7,3.578,3.578,0,0,1-.77.15,11.546,11.546,0,0,1-2.94.15Z" fill="#263238"/>
              <path id="Path_7067" data-name="Path 7067" d="M321.91,76.13c-.21.46-1.77.05-3.65.08-1.89-.01-3.46.42-3.65-.04-.09-.22.23-.64.89-1.04a5.782,5.782,0,0,1,5.57-.03c.65.39.94.81.85,1.03Z" fill="#263238"/>
              <path id="Path_7068" data-name="Path 7068" d="M337.95,74.51c-.36.42-1.85.08-3.62.14-1.77.02-3.26.44-3.62.03-.16-.2.05-.62.69-1.03a5.824,5.824,0,0,1,2.91-.81,5.715,5.715,0,0,1,2.93.67c.65.39.87.79.72,1Z" fill="#263238"/>
              <path id="Path_7069" data-name="Path 7069" d="M339.06,70.79s-3.42-7.12-7.02-8.64c-4.35-1.84-5.94,2.91-10.05,1.98s-8.25-2.7-12.23.63c-4.36,3.65-2.12,5.95-2.14,11.11-.1,20.95-3.62,27.05-5.19,17.26-.17-1.07-3.21-1.78-3.88-6.31-.87-5.88-1.45-13.04-.34-17.3.94-3.59,2.83-6.13,6.31-9,5.49-4.53,13.32-5.01,18.67-4.74s15.91,5.88,15.87,15.01Z" fill="#263238"/>
              <path id="Path_7070" data-name="Path 7070" d="M303.16,92.78a3.154,3.154,0,0,0-3.55-2.87c-2.16.31-4.5,1.66-4.14,6.13.65,7.93,8.47,5.64,8.47,5.41,0-.16-.47-5.36-.77-8.68Z" fill="#faddbe"/>
              <path id="Path_7071" data-name="Path 7071" d="M301.96,98.61a2.135,2.135,0,0,1-.36.23,1.4,1.4,0,0,1-1.03.11c-.86-.24-1.68-1.51-1.83-2.94a4.555,4.555,0,0,1,.23-2.01,1.572,1.572,0,0,1,.95-1.14.722.722,0,0,1,.85.31c.12.21.09.38.13.39.02.02.16-.15.07-.47a.921.921,0,0,0-.35-.47,1.022,1.022,0,0,0-.78-.14,1.936,1.936,0,0,0-1.34,1.35,4.728,4.728,0,0,0-.3,2.25c.18,1.59,1.12,3.02,2.29,3.26a1.522,1.522,0,0,0,1.25-.31c.23-.22.26-.4.23-.41Z" fill="#6f4439"/>
            </g>
            <path id="Path_7072" data-name="Path 7072" d="M302.55,77.39a7.7,7.7,0,0,0,3.44,1.39,2.59,2.59,0,0,0,2.78-1.96c.07-.56-.1-1.19.24-1.64.41-.53,1.22-.41,1.89-.37,2.32.13,4.89-2.55,5.37-4.83a2.089,2.089,0,0,0,2.8.44,7.448,7.448,0,0,0,1.83-1.8,3.275,3.275,0,0,1,2.66-1.5,7.619,7.619,0,0,0,1.75.29c1.04-.14,1.49-1.39,1.59-2.43s.17-2.26,1.02-2.86c.79-.56,1.87-.31,2.84-.22s2.2-.19,2.39-1.14a1.871,1.871,0,0,0-.43-1.42,5.146,5.146,0,0,0-6.17-1.65,6.983,6.983,0,0,0-12.88-.72,7.087,7.087,0,0,0-11.18,3.14,5.128,5.128,0,0,0-5.41,7.74,4.889,4.889,0,0,0-2.49,4.01c.05,1.64,1.73,3.2,3.3,2.69a2.847,2.847,0,0,0,5.06,2.59" fill="#263238"/>
            <path id="Path_7073" data-name="Path 7073" d="M327.25,59.98v.15a2.555,2.555,0,0,1-.03.43,5.03,5.03,0,0,1-.5,1.56,5.665,5.665,0,0,1-1.67,1.96,5.267,5.267,0,0,1-3.21,1.09l.13-.18a2.9,2.9,0,0,1-.05,2.2,8.106,8.106,0,0,1-1.26,2.02,6.146,6.146,0,0,1-.84.96,2.758,2.758,0,0,1-1.24.53,2.9,2.9,0,0,1-2.6-.79l.29-.1a5.961,5.961,0,0,1-2.32,4.25,4.378,4.378,0,0,1-2.57.98,7.672,7.672,0,0,1-2.6-.44l.21-.1a6.218,6.218,0,0,1-1.76,2.54,3.31,3.31,0,0,1-2.73.89,4.389,4.389,0,0,1-3.54-3.26l.18.07a4.147,4.147,0,0,1-2.71.54,4.5,4.5,0,0,1-1.94-.75,3.9,3.9,0,0,1-.94-.93,1.851,1.851,0,0,1-.22-.4,4.723,4.723,0,0,0,1.23,1.22,4.341,4.341,0,0,0,1.89.67,3.911,3.911,0,0,0,2.55-.55l.14-.09.04.17a4.121,4.121,0,0,0,3.34,3.01,3.027,3.027,0,0,0,2.48-.84,5.94,5.94,0,0,0,1.65-2.41l.06-.15.15.05a7.459,7.459,0,0,0,2.48.41,4.018,4.018,0,0,0,2.37-.91,5.683,5.683,0,0,0,2.2-4l.03-.38.26.28a2.584,2.584,0,0,0,2.3.7,2.509,2.509,0,0,0,1.1-.46,5.889,5.889,0,0,0,.8-.9,8.518,8.518,0,0,0,1.24-1.93,2.558,2.558,0,0,0,.07-1.99l-.07-.19h.2a5.118,5.118,0,0,0,3.07-.99,5.633,5.633,0,0,0,1.66-1.86,6.48,6.48,0,0,0,.66-2.06Z" fill="#455a64"/>
          </g>
        </g>
        <path id="Path_7074" data-name="Path 7074" d="M327.75,102.12c-.06-.29-1.99.21-3.8-1.08s-2.14-3.41-2.41-3.35c-.13,0-.25.56-.05,1.43a5.009,5.009,0,0,0,1.9,2.82,4.28,4.28,0,0,0,3.15.78c.83-.14,1.25-.48,1.2-.61Z" fill="#263238"/>
      </g>
      <g id="Group_18077" data-name="Group 18077">
        <g id="Group_18076" data-name="Group 18076">
          <path id="Path_7075" data-name="Path 7075" d="M374.88,175.54c-.18-.63-10.52-28.77-13.82-34.93-3.95-7.37-12.24-10.63-17.39-10.95s-60.26,4.07-60.26,4.07-16.46,3.69-18.56,17.84c-2.41,16.3-4.53,53.6-4.53,53.6l25.08-12.86,3.25-8.18,51.9,11.58,12.67-18.74,21.65-1.44Z" fill="#e0e0e0"/>
          <g id="Group_18075" data-name="Group 18075">
            <path id="Path_7076" data-name="Path 7076" d="M279.78,135.34l21.52-9.49,2.41-9.28,25.13,11.88,5.26-5.81,2.2,6.55,5.51,1.8,12.87,22.63-.04,48.23,2.6,41.6-2.79,6.57-23.05,3.4a26.157,26.157,0,0,1-7.6,0l-46.79-7.65-1.21-13.74,5-37.88-1.02-58.8Z" fill="#e0e0e0"/>
            <path id="Path_7077" data-name="Path 7077" d="M303.71,116.57s2.81.81,10.02,4.66c7.07,3.77,15.1,7.22,15.1,7.22l-.61,11.35-26.74-13.42" fill="#e0e0e0"/>
            <path id="Path_7078" data-name="Path 7078" d="M334.1,122.63l-5.26,5.82,2.81,12.16,4.69-10.99" fill="#e0e0e0"/>
            <g id="Group_18074" data-name="Group 18074" opacity="0.3">
              <path id="Path_7079" data-name="Path 7079" d="M328.94,129.7c.23.17,1.69,14.03,1.69,14.03l-26.8-16.19,24.4,12.25Z"/>
            </g>
          </g>
          <path id="Path_7080" data-name="Path 7080" d="M328.76,181.43c-.4-10.6,1.27-37.65,1.27-37.65l3.49-.56a393.868,393.868,0,0,1,8.96,58.51c.99,13.04.99,28.14.99,28.14l-7.02,15.06-7.76-14.96s.55-35.66.06-48.54Z" fill="#455a64"/>
          <path id="Path_7081" data-name="Path 7081" d="M278.18,136.98c-.04.05.73.65,1.81,1.77a21.876,21.876,0,0,1,5.68,10.57c.33,1.52.41,2.49.48,2.49a2.031,2.031,0,0,0,0-.69,14.171,14.171,0,0,0-.22-1.85,19.744,19.744,0,0,0-5.75-10.7,14.815,14.815,0,0,0-1.42-1.21,2.646,2.646,0,0,0-.57-.37Z" fill="#263238"/>
          <path id="Path_7082" data-name="Path 7082" d="M328.76,133.87l2.39-.93,2.27,3.89.41,6.39-3.2.52-2.4-3.95Z" fill="#455a64"/>
          <path id="Path_7083" data-name="Path 7083" d="M354.64,152.89c-.1,0-.19,13.84-.19,30.9s.08,30.91.19,30.91.19-13.83.19-30.91S354.75,152.89,354.64,152.89Z" fill="#263238"/>
          <path id="Path_7084" data-name="Path 7084" d="M328.59,128.35s.52.89,1.36,2.31a63.993,63.993,0,0,1,3.04,5.7c.09.19.17.37.25.55l.17.36.17-.36a44.35,44.35,0,0,0,2.24-5.67c.23-.74.4-1.34.5-1.76a2.609,2.609,0,0,0,.12-.66c-.05-.01-.34.88-.86,2.33a60.068,60.068,0,0,1-2.33,5.59h.34l-.26-.55a47.486,47.486,0,0,0-3.16-5.68c-.45-.7-.84-1.25-1.12-1.62s-.45-.57-.47-.55Z" fill="#263238"/>
          <path id="Path_7085" data-name="Path 7085" d="M301.3,125.85a2.933,2.933,0,0,0,.37.22q.42.225,1.08.57c.99.51,2.34,1.21,3.99,2.07,3.37,1.75,7.99,4.25,13.1,6.98,3.11,1.66,6.06,3.2,8.63,4.48l.24.12v-.26c.04-3.33.06-6.13.08-8.16v-2.3a3.774,3.774,0,0,0-.04-.82,4.775,4.775,0,0,0-.07.82c-.02.58-.05,1.35-.09,2.3-.05,2.03-.13,4.83-.21,8.16l.24-.14c-2.55-1.31-5.49-2.86-8.6-4.52-5.11-2.73-9.75-5.19-13.15-6.89-1.7-.85-3.09-1.52-4.05-1.97-.45-.21-.82-.37-1.12-.5a1.9,1.9,0,0,0-.4-.15Z" fill="#263238"/>
          <path id="Path_7086" data-name="Path 7086" d="M351.41,134.6c-.05.03.37.75.91,1.96a21.888,21.888,0,0,1,1.53,4.93,22.224,22.224,0,0,1,.32,5.16c-.07,1.33-.21,2.14-.15,2.15a1.779,1.779,0,0,0,.17-.56,12.362,12.362,0,0,0,.25-1.57,18.579,18.579,0,0,0-.22-5.24,19,19,0,0,0-1.66-4.98,12.533,12.533,0,0,0-.79-1.38c-.21-.31-.33-.48-.36-.46Z" fill="#263238"/>
          <path id="Path_7087" data-name="Path 7087" d="M331.22,144.15c.05.09.66-.2,1.36-.64s1.21-.86,1.16-.95-.66.2-1.36.64S331.17,144.06,331.22,144.15Z" fill="#263238"/>
          <path id="Path_7088" data-name="Path 7088" d="M330.07,142.59a18.505,18.505,0,0,0,1.63-3.24,17.126,17.126,0,0,0,1.28-3.39,18.1,18.1,0,0,0-1.62,3.24,17.126,17.126,0,0,0-1.28,3.39Z" fill="#263238"/>
        </g>
        <path id="Path_7089" data-name="Path 7089" d="M275.37,137.72s-8.29,5.97-9.33,9.27-5.44,56.89-6.22,63.27-1.55,18.3,3.37,22.19,15.55,6.8,15.55,6.8l9.82-20.28-5.2-10.89,5.2-40.7-13.19-29.66Z" fill="#e0e0e0"/>
        <path id="Path_7090" data-name="Path 7090" d="M276.37,238.53a4.356,4.356,0,0,1,.53-.04,11.092,11.092,0,0,0,1.53-.1,11.32,11.32,0,0,0,5.31-1.92,14.483,14.483,0,0,0,5.06-6.93,31.874,31.874,0,0,0,1.92-10.91l.05.14c-2.36-3.27-4.93-6.83-7.62-10.54l-.06-.08v-.1c.05-.27.08-.56.12-.86,1.47-11.42,2.79-21.75,3.76-29.28.48-3.71.87-6.73,1.15-8.87.13-1.01.24-1.81.32-2.41a6.482,6.482,0,0,1,.12-.84,1.194,1.194,0,0,1,0,.22,5.445,5.445,0,0,1-.03.63c-.05.6-.13,1.41-.22,2.42-.21,2.1-.55,5.14-.99,8.89-.88,7.51-2.15,17.87-3.61,29.3-.04.29-.07.59-.11.86l-.05-.18c2.67,3.72,5.24,7.29,7.59,10.56l.05.07v.07a31.969,31.969,0,0,1-2.02,11.07,14.641,14.641,0,0,1-5.28,7.03,10.369,10.369,0,0,1-3.02,1.4c-.23.06-.46.13-.68.19-.22.04-.43.07-.64.11a6.889,6.889,0,0,1-1.12.13,10.186,10.186,0,0,1-1.54.02,4.36,4.36,0,0,1-.53-.04Z" fill="#263238"/>
        <path id="Path_7091" data-name="Path 7091" d="M266.35,211.84a11.892,11.892,0,0,1,2.18-1.55,20.342,20.342,0,0,1,12.51-2.43,9.081,9.081,0,0,1,2.6.62,24.9,24.9,0,0,0-17.29,3.36Z" fill="#263238"/>
      </g>
      <g id="Group_18081" data-name="Group 18081">
        <path id="Path_7092" data-name="Path 7092" d="M331.42,158.48h0s.47,1.78,1.23,4.92a22.322,22.322,0,0,1,6.39-6.12h-.03s12.8-12.71,16.89-26.09c2.97-9.71,2.23-20.46,2.23-20.46-.12-.51-1.12-5.07-1.93-8.8a5.835,5.835,0,0,1,4.22-6.88c6.36-1.71,23.57-5.06,27.52,6.5,5.89,17.25-3.63,35.88-3.53,41.21.02,1.01.04,1.82.05,2.49,5.05-1.17,8.96-2.01,8.98-1.92h0l33.14-7.73s10.95-3.31,14.71,7.91-8.99,14.96-8.99,14.96,5.99-.26,7.62,9.95-9.32,13.52-9.32,13.52,6.71-.43,8.44,8.62c1.69,8.81-9.26,14.12-9.84,14.39a22.674,22.674,0,0,1,2.64-.5,16.236,16.236,0,0,1-2.01.58c5.1.65,5.84,6.73,5.84,6.73,3.29,12.47-6.31,15.09-6.31,15.09l-60.51,14.13a34.815,34.815,0,0,1-18.24-.66c.58,2.58.89,4.03.87,4.04h0l-42.26,9.87c-.09.02-4.66-19.19-10.19-42.89-5.54-23.72-9.95-42.95-9.86-42.98l42.26-9.87Z" fill="#ff725e"/>
        <path id="Path_7093" data-name="Path 7093" d="M331.42,158.48h0s.47,1.78,1.23,4.92a22.322,22.322,0,0,1,6.39-6.12h-.03s12.8-12.71,16.89-26.09c2.97-9.71,2.23-20.46,2.23-20.46-.12-.51-1.12-5.07-1.93-8.8a5.835,5.835,0,0,1,4.22-6.88c6.36-1.71,23.57-5.06,27.52,6.5,5.89,17.25-3.63,35.88-3.53,41.21.02,1.01.04,1.82.05,2.49,5.05-1.17,8.96-2.01,8.98-1.92h0l33.14-7.73s10.95-3.31,14.71,7.91-8.99,14.96-8.99,14.96,5.99-.26,7.62,9.95-9.32,13.52-9.32,13.52,6.71-.43,8.44,8.62c1.69,8.81-9.26,14.12-9.84,14.39a22.674,22.674,0,0,1,2.64-.5,16.236,16.236,0,0,1-2.01.58c5.1.65,5.84,6.73,5.84,6.73,3.29,12.47-6.31,15.09-6.31,15.09l-60.51,14.13a34.815,34.815,0,0,1-18.24-.66c.58,2.58.89,4.03.87,4.04h0l-42.26,9.87c-.09.02-4.66-19.19-10.19-42.89-5.54-23.72-9.95-42.95-9.86-42.98l42.26-9.87Z" fill="#2f755a"/>
        <g id="Group_18080" data-name="Group 18080">
          <path id="Path_7094" data-name="Path 7094" d="M339.59,170.52l-.82,5.49,13.51,57.85h0a34.833,34.833,0,0,0,27.2,4.9l60.51-14.13s9.6-2.62,6.31-15.09c0,0-.79-6.62-6.5-6.8,0,0,11.61-5.36,9.87-14.41s-8.44-8.62-8.44-8.62,10.95-3.31,9.32-13.52-7.62-9.95-7.62-9.95,12.74-3.73,8.99-14.96-14.71-7.91-14.71-7.91l-43.04,10.04-37.73,8.81a22.128,22.128,0,0,0-16.85,18.28Z" fill="#59ce93"/>
          <path id="Path_7095" data-name="Path 7095" d="M349.65,155.09s12.8-12.72,16.89-26.09c2.97-9.71,2.23-20.46,2.23-20.46-.12-.51-1.12-5.07-1.93-8.8a5.835,5.835,0,0,1,4.22-6.88c6.36-1.71,17.83,1.45,21.78,13.01,5.89,17.25,2.11,29.37,2.21,34.7l.1,5.33-45.5,9.21Z" fill="#59ce93"/>
          <rect id="Rectangle_1704" data-name="Rectangle 1704" width="43.4" height="88.18" transform="translate(299.795 166.119) rotate(-13.15)" fill="#59ce93"/>
          <path id="Path_7096" data-name="Path 7096" d="M362.11,242.15c.09-.02-4.32-19.26-9.86-42.97s-10.1-42.92-10.19-42.9,4.32,19.26,9.86,42.98S362.02,242.17,362.11,242.15Z" fill="#263238"/>
          <path id="Path_7097" data-name="Path 7097" d="M319.85,252.02c.09-.02-4.32-19.26-9.86-42.97s-10.1-42.92-10.19-42.9,4.32,19.26,9.86,42.98,10.1,42.91,10.19,42.89Z" fill="#263238"/>
          <path id="Path_7098" data-name="Path 7098" d="M331.73,179.42a8.123,8.123,0,1,1-9.76-6.06A8.122,8.122,0,0,1,331.73,179.42Z" fill="#fff"/>
          <path id="Path_7099" data-name="Path 7099" d="M404.08,141.12c-.02-.09-4.65.91-10.33,2.24s-10.27,2.48-10.25,2.57,4.65-.91,10.33-2.24S404.1,141.21,404.08,141.12Z" fill="#263238"/>
          <path id="Path_7100" data-name="Path 7100" d="M442.18,179.93a67.568,67.568,0,0,0-6.62,1.37c-3.63.85-6.56,1.61-6.54,1.7a67.568,67.568,0,0,0,6.62-1.37C439.27,180.78,442.2,180.02,442.18,179.93Z" fill="#263238"/>
          <path id="Path_7101" data-name="Path 7101" d="M443.72,155.85c-.02-.09-4.22.81-9.37,2.01s-9.32,2.25-9.3,2.35,4.22-.81,9.38-2.02,9.32-2.25,9.3-2.35Z" fill="#263238"/>
          <path id="Path_7102" data-name="Path 7102" d="M442.47,202.24c-.02-.09-4.22.81-9.37,2.01s-9.32,2.25-9.3,2.35,4.22-.81,9.38-2.02,9.32-2.25,9.3-2.35Z" fill="#263238"/>
          <g id="Group_18078" data-name="Group 18078" opacity="0.3">
            <path id="Path_7103" data-name="Path 7103" d="M371.42,97.1a5.022,5.022,0,0,0-.97,5.03,32.324,32.324,0,0,0,2.31,4.87,18.291,18.291,0,0,1,1.41,11.63c-.25,1.19-.58,2.56.18,3.51,1.08,1.34,3.26.6,4.62-.46a17.306,17.306,0,0,0,6.06-17.47,12.125,12.125,0,0,0-4.27-6.87c-2.21-1.64-5.6-3.13-9.35-.25" fill="#fff"/>
          </g>
          <g id="Group_18079" data-name="Group 18079" opacity="0.3">
            <path id="Path_7104" data-name="Path 7104" d="M441.17,134.88a10.5,10.5,0,0,0-4.47.46q-12.765,3.24-25.54,6.49c-2.78.71-8.01,1.34-8.06,4.18h0c-.56,1.55.62,3.31,2.14,3.94a8.967,8.967,0,0,0,4.88.18c3.42-.55,6.79-1.34,10.15-2.14,6.76-1.62,13.54-3.28,19.96-5.95a9.313,9.313,0,0,0,2.68-1.51,3.5,3.5,0,0,0,1.27-2.71,3.556,3.556,0,0,0-3.02-2.94Z" fill="#fff"/>
          </g>
          <path id="Path_7105" data-name="Path 7105" d="M332.66,161.04c-.02-.09-5.94,1.21-13.23,2.91s-13.17,3.15-13.15,3.25,5.94-1.21,13.23-2.91S332.68,161.14,332.66,161.04Z" fill="#fff"/>
          <path id="Path_7106" data-name="Path 7106" d="M446.68,170.77a3.392,3.392,0,0,0,.17-.5,8.2,8.2,0,0,0,.22-1.42,9.9,9.9,0,0,0-.08-2.13,11.24,11.24,0,0,0-.68-2.53,11.926,11.926,0,0,0-1.26-2.3,10.547,10.547,0,0,0-1.42-1.6,8.059,8.059,0,0,0-1.14-.88c-.29-.18-.45-.27-.47-.25-.04.05.6.46,1.44,1.29a12.237,12.237,0,0,1,1.33,1.6,13.116,13.116,0,0,1,1.2,2.24,12.4,12.4,0,0,1,.68,2.45,11.353,11.353,0,0,1,.15,2.08c-.03,1.19-.21,1.92-.15,1.93Z" fill="#fff"/>
          <path id="Path_7107" data-name="Path 7107" d="M447.85,147.56a3.973,3.973,0,0,0,.8-1.14,6.7,6.7,0,0,0-.43-6.47,3,3,0,0,0-.94-1.02c-.04.04.32.42.73,1.15a7.3,7.3,0,0,1,.91,3.08,7.4,7.4,0,0,1-.5,3.17c-.31.77-.63,1.2-.58,1.23Z" fill="#fff"/>
          <path id="Path_7108" data-name="Path 7108" d="M444.66,195.77a4.114,4.114,0,0,0,1.14-1.12,5.769,5.769,0,0,0-.44-7.24,3.573,3.573,0,0,0-1.26-.98c-.04.05.48.38,1.08,1.13a5.92,5.92,0,0,1,.42,6.95c-.51.82-.98,1.21-.94,1.25Z" fill="#fff"/>
          <path id="Path_7109" data-name="Path 7109" d="M440.82,218.17a4.257,4.257,0,0,0,.77-1.2,7.656,7.656,0,0,0-.29-6.71,3.445,3.445,0,0,0-.87-1.13c-.05.04.28.47.65,1.24a8.558,8.558,0,0,1,.8,3.22,8.441,8.441,0,0,1-.52,3.28c-.3.8-.59,1.26-.54,1.29Z" fill="#fff"/>
          <path id="Path_7110" data-name="Path 7110" d="M393.31,126.13s.11-.34.25-.98c.07-.32.16-.71.22-1.16s.16-.98.21-1.56a30.267,30.267,0,0,0,.15-4.09,31.231,31.231,0,0,0-1.89-9.81,31.691,31.691,0,0,0-1.66-3.74c-.26-.52-.54-.97-.77-1.37s-.45-.73-.64-1a4.956,4.956,0,0,0-.6-.81,5.5,5.5,0,0,0,.49.88c.17.28.37.62.58,1.02s.48.86.72,1.38a34.925,34.925,0,0,1,1.58,3.73,35.641,35.641,0,0,1,1.3,4.79,36.518,36.518,0,0,1,.58,4.93,34.654,34.654,0,0,1-.08,4.05c-.03.58-.11,1.09-.16,1.55s-.11.85-.16,1.17a4.913,4.913,0,0,0-.12,1Z" fill="#fff"/>
        </g>
      </g>
      <g id="Group_18082" data-name="Group 18082">
        <path id="Path_7111" data-name="Path 7111" d="M296.81,227.45s3.32-2.57,5.79-2.68,5.68.86,6.33.54,2.14-1.73,3.11-.54,2.14,5.48-3,6.66H305.5s.43,3.54,1.29,4.93,12.87,16.51,12.87,16.51,1.5,1.5.75,3-3.97.64-3.97.64-2.25,2.04-4.82,1.07a18.508,18.508,0,0,1-3.65-1.72,4.773,4.773,0,0,1-5.79,0c-3-2.25-13.01-14.8-13.01-14.8l3.58-14.04,4.07.43Z" fill="#faddbe"/>
        <path id="Path_7112" data-name="Path 7112" d="M286.39,219.15l10.42,8.3-7.65,13.61-15.26-5.54s.44-16.08,12.49-16.37Z" fill="#faddbe"/>
      </g>
      <g id="Group_18083" data-name="Group 18083">
        <path id="Path_7113" data-name="Path 7113" d="M448.92,200.61s-.33-3.73-2.41-2.96-2.96,5.16-2.96,5.16l5.38-2.19Z" fill="#faddbe"/>
        <path id="Path_7114" data-name="Path 7114" d="M441.45,204.29s3.62-4.06,8.67-3.73,1.87,4.61,1.87,4.61,3.74,2.3.99,5.6l-.44.88s3.18,1.21-.11,4.61a3.343,3.343,0,0,1-.44,3.84c-1.65,1.65-5.76-.55-5.76-.55s-3.79.88-4.12-.66a2.917,2.917,0,0,1,.88-2.85c.33-.22,2.3-.99,2.3-.99s-4.39.55-4.5-.55-.55-2.3,2.74-3.4l1.76-.47s-4.55.14-4.58-.96-.25-1.54,1.4-2.3a23.062,23.062,0,0,0,2.96-1.65S440.79,206.6,441.45,204.29Z" fill="#faddbe"/>
        <path id="Path_7115" data-name="Path 7115" d="M440.65,208.58a18.769,18.769,0,0,1,5.43-2.78,19.07,19.07,0,0,1,6.08-.47,4.732,4.732,0,0,0-1.79-.38,12.425,12.425,0,0,0-4.41.42,12.285,12.285,0,0,0-3.98,1.95,5.012,5.012,0,0,0-1.33,1.27Z" fill="#faddbe"/>
        <path id="Path_7116" data-name="Path 7116" d="M441.15,214.85a1.715,1.715,0,0,1-.21-.39,1.691,1.691,0,0,1,.01-1.14,2.586,2.586,0,0,1,.99-1.38,5.829,5.829,0,0,1,2.01-.84,45.4,45.4,0,0,1,5.75-.69,5.021,5.021,0,0,0-1.71-.19,17.246,17.246,0,0,0-4.14.44,5.75,5.75,0,0,0-2.15.94,2.813,2.813,0,0,0-1.06,1.63,1.71,1.71,0,0,0,.14,1.3c.18.27.36.33.37.31Z" fill="#faddbe"/>
        <path id="Path_7117" data-name="Path 7117" d="M443,219.68a2.668,2.668,0,0,1-.38-.31,1.818,1.818,0,0,1-.55-1.12,1.8,1.8,0,0,1,.64-1.63,7.51,7.51,0,0,1,2.15-1,14.237,14.237,0,0,1,4.4-.23,5.363,5.363,0,0,0,1.87-.1,14.045,14.045,0,0,0-1.85-.22,12.234,12.234,0,0,0-4.55.12,7.336,7.336,0,0,0-2.3,1.11,1.955,1.955,0,0,0-.64.98,2.5,2.5,0,0,0-.05,1.01,1.855,1.855,0,0,0,.75,1.21c.29.19.49.19.49.17Z" fill="#faddbe"/>
        <path id="Path_7118" data-name="Path 7118" d="M441.39,204.47a2.436,2.436,0,0,1,.32-.34,10.22,10.22,0,0,1,1-.81,14.306,14.306,0,0,1,3.72-2,9.5,9.5,0,0,1,4.15-.6,17.239,17.239,0,0,1,1.69.48,3.025,3.025,0,0,0-1.63-.8,8.622,8.622,0,0,0-4.34.48c-3.28,1.18-5.18,3.44-4.91,3.59Z" fill="#faddbe"/>
      </g>
    </g>
  </g>
</svg>
