<svg xmlns="http://www.w3.org/2000/svg" width="152.061" height="31.182" viewBox="0 0 152.061 31.182">
  <g id="Group_3807" data-name="Group 3807" transform="translate(-140 -21)">
    <path id="Path_20" data-name="Path 20" d="M223.572,27.121a25.235,25.235,0,0,1-5.875,5.644l-1.539-3.183a20.162,20.162,0,0,0,4.626-4.364c.919.621,1.836,1.279,2.788,1.9" transform="translate(54.445 1.686)" fill="#009d95"/>
    <rect id="Rectangle_1180" data-name="Rectangle 1180" width="12.075" height="3.247" transform="translate(279.098 27.463)" fill="#009d95"/>
    <path id="Path_21" data-name="Path 21" d="M237.616,32.5v3.15H234.4l-.067,9.022a2.39,2.39,0,0,1-1.314,1.608c-1.476.626-3.345.395-4.988.395L226.753,43.4l3.939-.066a.773.773,0,0,0,.361-.425l.03-7.218-7.543-.066c-.031-.788.032-1.609-.069-2.331a12.666,12.666,0,0,1-1.08,1.641V46.872h-3.283c-.031-2.592.035-5.216-.031-7.808-.558.426-1.084.953-1.607,1.411l-1.479-3.543A20.632,20.632,0,0,0,221.21,30.8l2.33,1.674Z" transform="translate(54.445 1.686)" fill="#009d95"/>
    <path id="Path_22" data-name="Path 22" d="M207.73,42.6c-.264.065-.13-.23-.361-.23-.069-.23-.3-.3-.458-.461-.069-.225-.331-.225-.3-.555.1-.035,0-.331.227-.2v-.1a6.077,6.077,0,0,0,.758-.491c.064-.1.226-.1.261-.231.033-.032.1,0,.164-.032v-.065c.033-.068.13-.036.163-.036v-.1c.032-.067.1,0,.132-.032v-.065c.033-.07.13-.034.163-.034v-.1c.066-.067.133-.033.2-.033v-.1c0-.033.067,0,.1-.033v-.067c.031-.064.1-.033.131-.033v-.262c-.266-.066-.131-.458-.428-.523-.1,0,.033-.2-.13-.132-.133-.131-.1-.33-.263-.393-.065-.1-.1-.263-.2-.327-.133-.1-.133-.331-.294-.366a1.239,1.239,0,0,0-.494-.686c-.064.065-.1.164-.231.132,0,.032.036.1-.033.1-.392.164-.655.624-1.083.789-.13.2-.36.262-.555.4-.3.1-.266-.167-.365-.267-.063-.426-.425-1.015-.03-1.311h3.281V25.567h-10.4l-.063,3.347a9.591,9.591,0,0,1-3.412-3.742H191.29A15.747,15.747,0,0,1,187.222,30c.359,1.147.753,2.36,1.213,3.51l.853-.525c.164.162.066.49.1.721l1.672.031c-.033.264,0,.559-.033.822h-3.277v2.887l3.31.066-.033,5.282-.588.263-2.789.231.162,3.28c2.823-.4,5.611-.921,8.336-1.509.525.228.229.951.326,1.441a1.444,1.444,0,0,0,.921,0c.493.068.621-.294,1.116-.163.131-.261.62,0,.787-.2a14.357,14.357,0,0,0,1.8-.361,6.105,6.105,0,0,0,1.117-.262c.362-.1.888-.033,1.148-.3v-2.1l.164-.1a.6.6,0,0,1,.331.49c.193.067.229.328.424.427.1,0-.033.232.131.163,0,.329.4.231.4.558.3.067.3.43.557.494.1.261.33.328.493.49.031.265.363.2.363.461a2.4,2.4,0,0,1,.653.46c.231-.033.13.065.361,0a4.523,4.523,0,0,0,.4-.691c.13-.1.2-.295.326-.359.068-.133.167-.2.167-.361.163,0,.163-.2.229-.295a4.018,4.018,0,0,0,.458-.722c.133,0,.133-.164.23-.3v-.195a5.18,5.18,0,0,1-1.311-1.05m-15-13.583a5.771,5.771,0,0,1,1.412,1.7l-2.56.034a11.92,11.92,0,0,1,1.148-1.737m4.889,14.14H196.9c-.034-.428.031-.854-.034-1.248-.128.034-.163-.13-.2-.194.327-1.084.458-2.2.687-3.281a17.675,17.675,0,0,0-2.392-.591l-.692,3.344.066.167,1.837.425a8.744,8.744,0,0,1-2.132.428V37.511H197.1l.035-2.953-3.016-.065v-.724c.685-.064,1.409-.033,2.131-.033a7.661,7.661,0,0,0,.066-1.245c.162-.165.327.129.49.129.359-.459.525-1.051.822-1.509Zm3.348-14.207.163-.132h3.544c.161.263.067.689.1,1.049l-.1.067h-3.544c-.33-.131-.1-.657-.163-.984M200.8,42.6V36.92c.2-.164.888-.295.822.228a18.983,18.983,0,0,0,1.344,4.892,9.649,9.649,0,0,1-2.166.557m.264-8.729a1.751,1.751,0,0,1-.033-1.081h3.61c.23.228.1.687.131,1.016a35.409,35.409,0,0,1-3.708.065" transform="translate(54.445 1.686)" fill="#009d95"/>
    <path id="Path_23" data-name="Path 23" d="M188.435,42.662c.526-.1,1.051-.231,1.575-.329.2-.1.525-.066.591-.263.033-1.345-.295-2.624-.359-3.871-.328-.227-.726,0-1.086.033-.457.1-.886.229-1.345.329l.229,4.1.1.064c.129,0,.263.067.294-.064" transform="translate(54.445 1.686)" fill="#009d95"/>
    <path id="Path_24" data-name="Path 24" d="M116.044,29.184a15.648,15.648,0,0,1-4.083,17.242,16.041,16.041,0,0,1-15.673,3.266,15.569,15.569,0,0,1-2.482-28.538A16.2,16.2,0,0,1,110.523,22.2a15.912,15.912,0,0,1,5.521,6.985" transform="translate(54.445 1.686)" fill="#009d95"/>
    <path id="Path_25" data-name="Path 25" d="M100.565,26.573c.556-.162,1.272-.588,1.829-.162.392.589,1.469.782,1.176,1.6A10.766,10.766,0,0,0,105.463,30c.165.036.227-.063.294-.162l-.2-.1c.229-.2.783.133,1.143-.065a.893.893,0,0,1,.718.293,5.359,5.359,0,0,0,.425.851l.13-.067a6.835,6.835,0,0,0,.423.817c1.178.391,1.732,1.794,2.778,2.384a17.037,17.037,0,0,0,4.113,2.447c-.063.2.164.2.26.264V36.7a.96.96,0,0,0-.652-.13c.2.293.686.161.785.486h-.522c0,.1.129.1.195.133-.262-.1-.523.1-.687-.226a22.535,22.535,0,0,1-3-1.7l-.032.031a13.544,13.544,0,0,0,2.646,1.729c.292.164.718.263.881.555-.1.034-.263.034-.3.164l-.23-.13c-.064.034,0,.1-.032.13l.162.133a14.33,14.33,0,0,1-3.361-1.96c-.489-.327-.98-.589-1.47-.947-.065,0-.163-.032-.2.066.557.424,1.144.686,1.7,1.077A9.284,9.284,0,0,1,108.4,33.92c-.358-.36-.881-1.11-1.5-.981-.229.132-.588.1-.849.23-.195,0-.361-.23-.555-.065-.162.36-.685.065-.785.456-.324.133-.913.034-1.011.425l.032.164c-.653.292-1.534.2-1.99.817-.132.129-.393-.032-.522.129.032-.063-.033-.129-.1-.129-.165-.069-.262.1-.4.129-.1-.161.133-.2.1-.294-.3-.128-.425.261-.655.392.034-.259.328-.3.424-.52-.161-.1-.293.064-.424.1.067-.031.2-.258,0-.258.165-.263.523-.166.621-.458h-.261c.261-.2.555-.425.784-.621-.1,0-.295-.262-.458-.034,0-.033.065-.064.032-.1-.131-.133-.294.1-.455.1,0,.034.032-.1-.065-.129h-.1c.1-.066.23-.229.358-.329l-.064-.061a15.874,15.874,0,0,1,1.472-.851l.1-.1a.341.341,0,0,0-.523,0c.427-.032.033-.491.458-.556a1.311,1.311,0,0,1,.652-.783c-.426-.392-.587-1.111-1.077-1.337-.033-.3-.326,0-.358-.3-.589-.033-1.275.261-1.665-.258a2.443,2.443,0,0,0-.981-.035,3.151,3.151,0,0,0-.523.815,3.053,3.053,0,0,0-.587.818,2.617,2.617,0,0,1-1.175,1.043v-.063c-.358.489-1.143.293-1.6.815l-.033-.131a.272.272,0,0,0-.326.2v.065c-.23-.065-.393.2-.49.325-.557.587-1.47.587-2.057,1.079-.067.033.031,0,0-.033-1.078.229-1.6,1.043-2.318,1.828a4.5,4.5,0,0,1-.783.783c.065.263-.328.361-.458.491.13-.228.423-.425.458-.685-.264.131-.328.425-.621.555-.165-.13.163-.229.064-.361l-.392.3.36-.491c-.2.031-.393.359-.621.39-.066.1-.163.1-.293.1v-.034a7.013,7.013,0,0,0,.554-.524c-.228-.13-.489.165-.653.133-.064-.035-.031-.2-.194-.133.163-.13.325-.226.39-.422-.13-.033-.293.064-.425.131.035-.164.36-.265.264-.525-.426-.066-.361.361-.719.458.358-.491.88-.785,1.239-1.306l-.034-.033a9.435,9.435,0,0,1,2.386-1.7c.685-.39,1.6-.587,2.089-1.242a5.163,5.163,0,0,0,.523-.749c.1.033.131-.065.164-.13a3.073,3.073,0,0,1,1.6-.489c.261-.262.751-.1.946-.459.686-.815.948-1.828,1.533-2.644.2-.262.425-.687.818-.784a16.059,16.059,0,0,1,2.84.522" transform="translate(54.445 1.686)" fill="#fff"/>
    <path id="Path_26" data-name="Path 26" d="M107.847,30.458l-.131-.422.131.359Z" transform="translate(54.445 1.686)" fill="#fff"/>
    <path id="Path_27" data-name="Path 27" d="M108.075,31.113c-.13-.031-.1-.132-.163-.229a.436.436,0,0,1,.163.229" transform="translate(54.445 1.686)" fill="#fff"/>
    <path id="Path_28" data-name="Path 28" d="M92.5,31.339c-.1-.2.164-.258.262-.422a.713.713,0,0,1-.262.422" transform="translate(54.445 1.686)" fill="#00a28d"/>
    <path id="Path_29" data-name="Path 29" d="M95.634,31.4v-.031h.1Z" transform="translate(54.445 1.686)" fill="#00a28d"/>
    <path id="Path_30" data-name="Path 30" d="M94.949,31.6c-.066.066-.1.164-.195.129,0-.1.129-.193.195-.129" transform="translate(54.445 1.686)" fill="#00a28d"/>
    <path id="Path_31" data-name="Path 31" d="M101.22,32.158c-.164.129-.494.229-.524.423-.293-.033-.49.261-.719.261.033-.261.426-.1.459-.359l.26-.2.03.1c.1-.1.428-.035.33-.3Z" transform="translate(54.445 1.686)" fill="#fff"/>
    <path id="Path_32" data-name="Path 32" d="M100.173,32.352a.508.508,0,0,1-.359.263c.065-.163.2-.163.359-.263" transform="translate(54.445 1.686)" fill="#fff"/>
    <path id="Path_33" data-name="Path 33" d="M93.447,32.745c.064.1-.065,0-.1.065.035-.033.067-.065.1-.065" transform="translate(54.445 1.686)" fill="#00a28d"/>
    <rect id="Rectangle_1181" data-name="Rectangle 1181" width="0.098" height="0.097" transform="translate(155.238 34.594)" fill="#fff"/>
    <path id="Path_34" data-name="Path 34" d="M100.662,33.134c0,.067-.065.067-.1.134h-.1c-.033-.1.064-.134.129-.164.032,0,.032.03.065.03" transform="translate(54.445 1.686)" fill="#fff"/>
    <path id="Path_35" data-name="Path 35" d="M101.284,33.757c-.033.13-.2.13-.263.162-.1-.032.034-.064.034-.13.1.033.131-.063.229-.032" transform="translate(54.445 1.686)" fill="#fff"/>
    <path id="Path_36" data-name="Path 36" d="M101.349,33.954c-.032.133-.261.133-.394.229-.031-.131.165-.2.265-.263.031.034.129,0,.129.034" transform="translate(54.445 1.686)" fill="#00a28d"/>
    <path id="Path_37" data-name="Path 37" d="M109.186,34.28c.131.064.195.229.3.325l-.1.1a2.3,2.3,0,0,1-.491-.749c.1.1.164.261.3.326" transform="translate(54.445 1.686)" fill="#00a28d"/>
    <path id="Path_38" data-name="Path 38" d="M113.886,36.011c-.1.065-.227-.067-.325-.1Z" transform="translate(54.445 1.686)" fill="#fff"/>
    <path id="Path_39" data-name="Path 39" d="M114.8,36.5c-.263-.165-.621-.165-.815-.359a1.8,1.8,0,0,1,.815.359" transform="translate(54.445 1.686)" fill="#fff"/>
    <path id="Path_40" data-name="Path 40" d="M111.93,36.467l-.4-.294.262.131Z" transform="translate(54.445 1.686)" fill="#fff"/>
    <path id="Path_41" data-name="Path 41" d="M114.7,37.446l.033-.064.1.064Z" transform="translate(54.445 1.686)" fill="#fff"/>
    <path id="Path_42" data-name="Path 42" d="M114.572,37.61h-.129v-.064c.032.03.1.03.129.064" transform="translate(54.445 1.686)" fill="#fff"/>
    <path id="Path_43" data-name="Path 43" d="M171.33,41.708h4.761V27.855h3.416V46.3h-3.416V45.059l-13.1-.033-.034,1.185h-3.513V27.689h3.513V41.708l4.827-.033v-17h3.548Z" transform="translate(54.445 1.686)" fill="#009d95"/>
    <path id="Path_44" data-name="Path 44" d="M150.113,28.5l-7.747.019-.062.065V33.3l7.288.071v3.341H142.27l-.037,5.945,8.834.032V46.11H129.892V42.727l8.8-.034V36.755l-7.225-.039V33.342h7.225V28.489l-7.719-.074V25.068h19.143Z" transform="translate(54.445 1.686)" fill="#009d95"/>
    <path id="Path_45" data-name="Path 45" d="M147.955,38.591a2.247,2.247,0,0,1,.26,1.679,2.1,2.1,0,0,1-3.642.783,2.095,2.095,0,1,1,3.382-2.462" transform="translate(54.445 1.686)" fill="#009d95"/>
  </g>
</svg>
