<svg xmlns="http://www.w3.org/2000/svg" width="45" height="67.125" viewBox="0 0 45 67.125">
  <g id="Group_18142" data-name="Group 18142" transform="translate(-1215 -1190)">
    <g id="Group_4033" data-name="Group 4033">
      <path id="Path_3452" data-name="Path 3452" d="M-1597.483-1064.494l-19.74-33.806s-7.855-31.688,19.74-31.571,19.913,31.18,19.913,31.18Z" transform="translate(2835 2321.619)" fill="#ef7803"/>
      <circle id="Ellipse_133" data-name="Ellipse 133" cx="22.5" cy="22.5" r="22.5" transform="translate(1215 1190)" fill="#ef7803"/>
    </g>
    <path id="Path_3453" data-name="Path 3453" d="M16.613,10.288c.545-.164,1.249-.593,1.8-.164.384.593,1.441.79,1.153,1.614a10.852,10.852,0,0,0,1.857,2.01c.161.034.224-.065.289-.164l-.192-.1c.225-.2.769.132,1.121-.067a.869.869,0,0,1,.706.3,5.223,5.223,0,0,0,.416.858l.128-.065a6.7,6.7,0,0,0,.416.823c1.154.4,1.7,1.813,2.725,2.406a15.643,15.643,0,0,0,4.036,2.221c-.064.2.161.2.256.264v.033a.914.914,0,0,0-.641-.132c.193.3.673.165.77.494h-.513c0,.1.128.1.192.132-.255-.1-.513.1-.672-.231a20.657,20.657,0,0,1-2.948-1.463l-.031.032a12.021,12.021,0,0,0,2.594,1.5c.289.165.7.265.865.561-.1.033-.257.033-.289.165l-.224-.132c-.064.033,0,.1-.033.132l.161.132a12.747,12.747,0,0,1-3.3-1.727c-.481-.33-.961-.593-1.442-.956-.064,0-.16-.033-.192.066.546.428,1.122.692,1.666,1.087A9.069,9.069,0,0,1,24.3,17.7c-.352-.364-.865-1.121-1.473-.989-.225.132-.576.1-.834.231-.191,0-.352-.231-.544-.066-.16.362-.672.066-.769.461-.319.133-.9.034-.993.429l.033.165c-.642.3-1.507.2-1.954.824-.129.132-.385-.033-.512.132a.1.1,0,0,0-.1-.132c-.161-.066-.256.1-.385.132-.1-.165.128-.2.1-.3-.289-.132-.418.264-.641.4.032-.264.32-.3.416-.528-.161-.1-.289.066-.416.1.064-.032.191-.263,0-.263.16-.263.512-.165.609-.461h-.257c.257-.2.545-.429.769-.626-.095,0-.289-.264-.448-.033,0-.033.064-.066.032-.1-.128-.132-.288.1-.449.1,0,.033.032-.1-.065-.132h-.1c.1-.066.225-.231.353-.33l-.065-.065a16.024,16.024,0,0,1,1.443-.857l.095-.1a.328.328,0,0,0-.512,0c.418-.032.032-.495.449-.559a1.313,1.313,0,0,1,.641-.792c-.416-.4-.577-1.121-1.057-1.351-.032-.3-.321,0-.352-.3-.577-.034-1.25.263-1.635-.264a2.355,2.355,0,0,0-.961-.033,3.18,3.18,0,0,0-.512.823,3.059,3.059,0,0,0-.576.825A2.6,2.6,0,0,1,12.48,15.1v-.066c-.352.495-1.121.3-1.57.824l-.032-.132a.267.267,0,0,0-.321.2v.065c-.225-.065-.385.2-.48.329-.546.593-1.442.593-2.019,1.089-.064.032.032,0,0-.033C7,17.606,6.489,18.428,5.784,19.22a4.472,4.472,0,0,1-.768.79c.064.265-.322.362-.449.5.127-.231.415-.429.449-.692-.258.132-.322.428-.609.559-.162-.132.161-.231.064-.362l-.385.3.353-.494c-.194.032-.385.362-.609.4-.064.1-.161.1-.289.1v-.032a7.233,7.233,0,0,0,.545-.529c-.224-.131-.481.165-.642.133-.064-.034-.031-.2-.191-.133.16-.131.32-.23.385-.427-.129-.034-.289.065-.418.132.033-.165.353-.265.257-.528-.415-.066-.352.362-.7.461.352-.494.865-.791,1.217-1.317l-.033-.033A9.209,9.209,0,0,1,6.3,16.319c.674-.395,1.57-.592,2.051-1.251a5.277,5.277,0,0,0,.512-.759c.1.033.129-.065.161-.131a2.955,2.955,0,0,1,1.57-.495c.256-.265.737-.1.929-.462.672-.823.929-1.845,1.506-2.669.192-.264.416-.692.8-.791A15.406,15.406,0,0,1,16.613,10.288Z" transform="translate(1220.389 1193.412)" fill="#fff"/>
  </g>
</svg>
