<svg xmlns="http://www.w3.org/2000/svg" xmlns:xlink="http://www.w3.org/1999/xlink" width="50" height="50" viewBox="0 0 50 50">
  <defs>
    <clipPath id="clip-path">
      <rect id="Rectangle_1341" data-name="Rectangle 1341" width="49.993" height="50" fill="none"/>
    </clipPath>
  </defs>
  <g id="Group_18144" data-name="Group 18144" transform="translate(-333 -1322)">
    <ellipse id="Ellipse_134" data-name="Ellipse 134" cx="25" cy="24.997" rx="25" ry="24.997" transform="translate(333 1322)" fill="#fff"/>
    <g id="Group_4081" data-name="Group 4081" transform="translate(333 1322)">
      <g id="Group_4081-2" data-name="Group 4081" clip-path="url(#clip-path)">
        <path id="Path_3458" data-name="Path 3458" d="M49.993,25A25,25,0,1,1,25.037,0,25.067,25.067,0,0,1,49.993,25M38.169,34.364A13.324,13.324,0,0,0,24.12,23.716c-5.863.347-12,5.835-12.046,10.933l5.817,1.085c1.329-3.772,3.6-5.789,6.722-5.883,4.012-.12,6.466,1.974,7.726,5.739l5.831-1.227M18.291,15.1a3.1,3.1,0,0,0-3.186,2.8,3.187,3.187,0,0,0,2.939,3.3,3.162,3.162,0,0,0,3.179-2.835A3.1,3.1,0,0,0,18.291,15.1m13.268,0a3.125,3.125,0,0,0-3.137,2.865,3.2,3.2,0,0,0,3.009,3.246,3.119,3.119,0,0,0,3.107-2.9A3.075,3.075,0,0,0,31.559,15.1" transform="translate(0 0)" fill="#cd675b"/>
      </g>
    </g>
  </g>
</svg>
