<svg width="80" height="34" viewBox="0 0 80 34" fill="none" xmlns="http://www.w3.org/2000/svg">
<path d="M29.6067 10.1791L34.5762 7.1487L23.1593 0.237114C23.1261 0.218184 23.0888 0.208252 23.0508 0.208252C23.0129 0.208252 22.9755 0.218184 22.9423 0.237114L0.677935 13.5756C0.647106 13.5953 0.621673 13.6228 0.604038 13.6554C0.586403 13.6881 0.577148 13.7248 0.577148 13.7621C0.577148 13.7995 0.586403 13.8362 0.604038 13.8689C0.621673 13.9015 0.647106 13.929 0.677935 13.9487L22.9491 26.2584C22.9806 26.2771 23.0162 26.2869 23.0525 26.2869C23.0888 26.2869 23.1245 26.2771 23.1559 26.2584L33.2203 20.4L28.922 17.68C28.8887 17.6594 28.8507 17.6485 28.8118 17.6485C28.773 17.6485 28.7349 17.6594 28.7017 17.68L23.1559 21.0312C23.1236 21.0508 23.0867 21.0611 23.0491 21.0611C23.0116 21.0611 22.9747 21.0508 22.9423 21.0312L11.139 14.1544C11.0751 14.1151 11.0222 14.0595 10.9854 13.9928C10.9487 13.9262 10.9294 13.8509 10.9294 13.7743C10.9294 13.6978 10.9487 13.6225 10.9854 13.5559C11.0222 13.4892 11.0751 13.4335 11.139 13.3942L22.9457 6.51404C22.9777 6.49506 23.0139 6.48507 23.0508 6.48507C23.0877 6.48507 23.124 6.49506 23.1559 6.51404L29.3559 10.207C29.3952 10.2303 29.4407 10.2402 29.4858 10.2352C29.5309 10.2302 29.5732 10.2105 29.6067 10.1791Z" fill="#BBDFDC"/>
<path d="M22.7119 7.84619L23.0508 13.077L17.2881 16.5641L12.8813 13.7744L22.7119 7.84619Z" fill="#11482E"/>
<path d="M29.4915 16.5641L23.0508 13.077L23.3898 7.84619L29.1525 10.9847L29.4915 16.5641Z" fill="#2F6B72"/>
<path d="M34.5762 7.14868V13.0769L29.4915 16.5641L29.8304 10.9846L34.5762 7.14868Z" fill="#11482E"/>
<path d="M0 13.7744V20.4001L22.7119 34.0001L22.3729 27.7231L0 13.7744Z" fill="#2F6B72"/>
<path d="M23.3899 27.7231L22.7119 34L32.8814 27.0257L33.2204 20.4L23.3899 27.7231Z" fill="#11482E"/>
<path d="M46.4406 6.45129L50.8474 9.93847L45.0846 13.4257L57.288 21.0974L69.4914 13.7744L63.3897 9.93847L68.1355 6.45129L79.9999 13.7744L57.288 26.6769L34.5762 13.4257L46.4406 6.45129Z" fill="#BBDFDC"/>
<path d="M34.5762 13.4257V19.3539L57.288 34L56.6101 27.7231L34.5762 13.4257Z" fill="#2F6B72"/>
<path d="M80 13.7744V20.4001L57.2881 34.0001L57.6271 27.7231L80 13.7744Z" fill="#11482E"/>
<path d="M50.8475 10.2872V15.8667L47.1187 13.7744L50.8475 10.2872Z" fill="#11482E"/>
<path d="M63.3899 10.2872V15.8667L67.4577 13.7744L63.3899 10.2872Z" fill="#2F6B72"/>
<path d="M57.1187 6.27692L62.8814 3.48718L57.4577 0L52.0339 3.13846L57.1187 6.27692Z" fill="#BBDFDC"/>
<path d="M56.6103 7.14876L51.8645 3.31287V9.24107L57.2882 13.077L56.6103 7.14876Z" fill="#2F6B72"/>
<path d="M57.2881 13.0769L57.9661 7.14868L62.7118 3.6615V9.5897L57.2881 13.0769Z" fill="#11482E"/>
</svg>
