<svg width="27" height="27" viewBox="0 0 27 27" fill="none" xmlns="http://www.w3.org/2000/svg">
<path d="M5.0625 4.21875L21.9375 22.7812" stroke="black" stroke-linecap="round" stroke-linejoin="round"/>
<path d="M16.3381 16.6217C15.5102 17.3742 14.4172 17.7671 13.2997 17.7138C12.1821 17.6605 11.1315 17.1655 10.3789 16.3377C9.62628 15.5098 9.23334 14.4169 9.28651 13.2993C9.33968 12.1818 9.83459 11.1311 10.6624 10.3784" stroke="black" stroke-linecap="round" stroke-linejoin="round"/>
<path d="M7.8041 7.23438C3.50422 9.41184 1.6875 13.4999 1.6875 13.4999C1.6875 13.4999 5.0625 21.0928 13.5 21.0928C15.4769 21.1086 17.4291 20.6532 19.1951 19.7645" stroke="black" stroke-linecap="round" stroke-linejoin="round"/>
<path d="M22.002 17.8348C24.3014 15.7753 25.3127 13.5001 25.3127 13.5001C25.3127 13.5001 21.9377 5.90554 13.5002 5.90554C12.7694 5.90434 12.0398 5.96375 11.3188 6.08316" stroke="black" stroke-linecap="round" stroke-linejoin="round"/>
<path d="M14.2939 9.35596C15.1906 9.52814 16.0073 9.9864 16.6215 10.662C17.2356 11.3376 17.6142 12.1942 17.7004 13.1031" stroke="black" stroke-linecap="round" stroke-linejoin="round"/>
</svg>
