<svg width="74" height="74" viewBox="0 0 74 74" fill="none" xmlns="http://www.w3.org/2000/svg">
<path d="M71.4874 38.1375L35.8624 2.5125C34.6734 1.0875 32.7765 0.375 30.8749 0.375H7.12646C3.08744 0.375 0.00146484 3.46098 0.00146484 7.5V31.2485C0.00146484 33.15 0.713965 35.047 2.13896 36.236L37.764 71.861C39.189 73.286 41.0905 73.9985 42.7515 73.9985C44.4124 73.9985 46.314 73.286 47.739 71.861L71.4874 48.1125C74.3374 45.4985 74.3374 40.7515 71.4874 38.1375ZM16.6249 21.75C14.0109 21.75 11.8734 19.6125 11.8734 16.9985C11.8734 14.3845 14.0109 12.247 16.6249 12.247C19.239 12.247 21.3765 14.3845 21.3765 16.9985C21.3765 19.6125 19.239 21.75 16.6249 21.75Z" fill="#262A4E"/>
</svg>
