<svg xmlns="http://www.w3.org/2000/svg" width="484.266" height="311.83" viewBox="0 0 484.266 311.83">
  <g id="Group_18102" data-name="Group 18102" transform="translate(-7.864 -88.65)">
    <g id="Group_18087" data-name="Group 18087">
      <path id="Path_7119" data-name="Path 7119" d="M351.89,400.47c1.94-1.15,3.87-2.33,5.77-3.55,24.24-15.57,45.04-38.51,51.91-66.49s-2.96-60.94-27.57-75.91c-21.4-13.02-48.79-10.58-72.9-3.76s-47.32,17.6-72.23,20.18c-29.51,3.06-61.14-5.33-87.94,7.4-29.74,14.12-43.15,52.71-33.51,84.2a87.48,87.48,0,0,0,23.75,37.53l212.73.4Z" fill="#e8fff3"/>
      <path id="Path_7120" data-name="Path 7120" d="M166.78,400.35l-.09-.06c-1.9-1.21-3.78-2.45-5.59-3.71-26.42-18.28-44.3-42.96-50.33-69.5-7.1-31.21,4.2-64.66,26.86-79.52,17.66-11.58,41.49-12.93,70.82-3.99,7.63,2.32,15.28,5.13,22.69,7.85,15.21,5.58,30.93,11.35,47.11,13.15,10.01,1.11,20.45.75,30.55.4,18.57-.65,37.76-1.32,54.65,7.31,27.75,14.19,42.36,53.74,32.57,88.17-4.23,14.86-12.83,26.62-28.75,39.32l-.1.08h-.13l-200.25.51Zm6.57-161.88c-13.66,0-25.47,3.23-35.33,9.7-22.42,14.7-33.59,47.82-26.55,78.75,6,26.36,23.77,50.89,50.04,69.06,1.77,1.23,3.62,2.45,5.48,3.63l199.92-.5c15.73-12.57,24.23-24.19,28.41-38.87,9.7-34.11-4.74-73.29-32.2-87.32-16.71-8.54-35.82-7.88-54.29-7.23-10.12.35-20.59.72-30.65-.4-16.27-1.81-32.03-7.59-47.28-13.19-7.39-2.71-15.04-5.52-22.65-7.83-12.69-3.86-24.34-5.8-34.88-5.8Z" fill="#59ce93"/>
    </g>
    <g id="Group_18089" data-name="Group 18089">
      <path id="Path_7121" data-name="Path 7121" d="M441.83,384.78c-7.15,0-12.96-5.43-12.96-12.11s5.81-12.11,12.96-12.11,12.96,5.43,12.96,12.11S448.97,384.78,441.83,384.78Zm0-19.7c-4.66,0-8.45,3.41-8.45,7.59s3.79,7.59,8.45,7.59,8.45-3.41,8.45-7.59S446.49,365.08,441.83,365.08Z" fill="#59ce93"/>
      <g id="Group_18088" data-name="Group 18088">
        <path id="Path_7122" data-name="Path 7122" d="M437.26,399.77H408.89l-4.85-49.22h38.07Z" fill="#fff"/>
        <path id="Path_7123" data-name="Path 7123" d="M437.7,400.26H408.45l-4.94-50.19h39.13Zm-28.37-.97h27.49l4.75-48.25H404.58Z" fill="#59ce93"/>
      </g>
      <path id="Path_7124" data-name="Path 7124" d="M432.32,395.68H413.83l-3.16-30.85h24.82Z" fill="#e8fff3"/>
    </g>
    <g id="Group_18090" data-name="Group 18090">
      <path id="Path_7125" data-name="Path 7125" d="M239.49,103.91c-6.85,3.17-15.97,8.28-14.24,17.35,1.7,8.9,12.45,7.3,18.72,5.17a61.046,61.046,0,0,0,13.27-6.34c2.68-1.72,6.46-4.69,5.54-8.38-.79-3.17-4.46-4.09-7.28-3.51a30.189,30.189,0,0,0-11.97,5.96c-2.91,2.39-5.18,6.1-4.61,10,.52,3.56,3.46,6.1,6.73,7.22,4.08,1.39,9.61,1.11,13.71-.14,2.49-.76,4.79-3.01,3.16-5.71-1.93-3.19-5.93-2.42-8.71-1.02-3.75,1.9-8.18,4.38-10.04,8.36-1.41,3.02-1.18,6.77,1.55,8.95,2.68,2.14,6.55,2.15,9.8,1.9,2.69-.21,7.08-.77,7.51-4.16.43-3.42-3.78-4.98-6.45-3.97-4.14,1.56-6.73,6.67-7.99,10.62a24.022,24.022,0,0,0-.02,14.34c.18.59,1.12.34.94-.26a23.008,23.008,0,0,1,1.98-18.28c1.54-2.65,4.57-6.83,8.18-5.66,1.93.62,3.3,2.91,1.59,4.63-1.2,1.21-3.23,1.5-4.85,1.68a20.568,20.568,0,0,1-7.17-.24,6.169,6.169,0,0,1-4.47-8.54c1.21-3.2,4.16-5.21,6.98-6.89,2.68-1.6,8.01-4.94,10.32-.99,2.58,4.43-5.82,4.9-8.12,5.07-3.39.26-6.97.13-9.93-1.73a7.544,7.544,0,0,1-3.4-8.95c1.15-3.59,4.13-5.99,7.32-7.75,2.49-1.37,5.4-2.98,8.21-3.52,1.98-.38,4.47-.07,5.65,1.81,1.41,2.25-.27,4.7-1.9,6.23-4.56,4.29-11.45,7.01-17.34,8.82-6.14,1.89-16.2,2.3-16.12-6.74.08-7.81,7.8-11.67,13.93-14.51.57-.26.07-1.1-.49-.84h0Z" fill="#212144"/>
      <path id="Path_7126" data-name="Path 7126" d="M169.05,149.65c1.57,3.3,3,6.66,4.39,10.03l2.04,5.07,1.95,5.1-2.91-.86,4.89-3.84c1.63-1.28,3.3-2.51,4.94-3.76l1.99-1.52.92,2.3c.66,1.66,1.28,3.34,1.92,5s1.22,3.36,1.84,5.04c.58,1.69,1.18,3.38,1.72,5.08q.84,2.55,1.58,5.14l-1.4.57c-.86-1.58-1.69-3.17-2.47-4.77-.81-1.6-1.56-3.22-2.33-4.83-.74-1.63-1.5-3.24-2.22-4.88s-1.45-3.27-2.14-4.91l2.91.78c-1.63,1.27-3.25,2.57-4.9,3.82l-4.96,3.75-2.1,1.59-.81-2.45-1.71-5.19-1.63-5.22c-1.05-3.49-2.06-6.99-2.93-10.55l1.43-.51Z" fill="#e89f33"/>
      <path id="Path_7127" data-name="Path 7127" d="M307.32,160.34c-.87,3.55-1.88,7.06-2.93,10.55l-1.63,5.22-1.71,5.19-.81,2.45-2.1-1.59-4.96-3.75c-1.65-1.25-3.27-2.55-4.9-3.82l2.91-.78c-.69,1.65-1.43,3.27-2.14,4.91s-1.48,3.25-2.22,4.88c-.77,1.61-1.52,3.23-2.33,4.83-.79,1.61-1.62,3.2-2.47,4.77l-1.4-.57q.735-2.595,1.58-5.14c.54-1.71,1.15-3.39,1.72-5.08.61-1.68,1.2-3.37,1.84-5.04s1.26-3.34,1.92-5l.92-2.3,1.99,1.52c1.65,1.26,3.31,2.49,4.94,3.76l4.89,3.84-2.91.86,1.95-5.1,2.04-5.07c1.39-3.37,2.82-6.72,4.39-10.03l1.43.51Z" fill="#e89f33"/>
    </g>
    <g id="Group_18097" data-name="Group 18097">
      <g id="Group_18091" data-name="Group 18091">
        <path id="Path_7128" data-name="Path 7128" d="M281.77,260.53l-33.7-2.05L204.1,270.1a49.5,49.5,0,0,0-33.62,30.22l-27.47,71.95L197,324.43l14.87,75.32,100.86-.32-.32-104.58-30.63-34.32Z" fill="#59ce93"/>
        <path id="Path_7129" data-name="Path 7129" d="M254.88,299.57a20.835,20.835,0,0,1-15.58-6.58l.72-.65a20.2,20.2,0,0,0,17.06,6.15,22.23,22.23,0,0,0,17.07-10.93l.83.5a23.2,23.2,0,0,1-17.81,11.39c-.77.07-1.54.11-2.3.11Z" fill="#2f755a"/>
      </g>
      <g id="Group_18093" data-name="Group 18093">
        <path id="Path_7130" data-name="Path 7130" d="M259.08,286.41c-6.46,3.12-14.39.04-17.64-6.87l-1.1-2.34-11.11-23.61-6.8-14.46,32.85-15.88,14.3,30.39c5.88,12.5,1.19,27.11-10.5,32.76Z" fill="#faddbe"/>
        <path id="Path_7131" data-name="Path 7131" d="M258.41,247.49c-2.89,14.08-10.12,23.73-18.07,29.71l-11.11-23.61Z" fill="#f7c99d"/>
        <path id="Path_7132" data-name="Path 7132" d="M262.26,229.87c0,17.01-9.59,28.66-21.75,34.67-12.52,6.18-25.58-17.58-31.83-33.46-6.48-16.49,11.36-28.85,26.29-28.85s27.29,10.63,27.29,27.64Z" fill="#faddbe"/>
        <path id="Path_7133" data-name="Path 7133" d="M262.94,220.17c-1.45-17.46-5-33.96-21.17-29.74-6.14-8.57-31.84-8.4-38.15,11.96-4.07,13.14-17.13,19.56-17.13,19.56,15.68,8.24,30.13,5.16,50.27-10.18,6.3,9.21,24.25,9.86,24.25,9.86l1.94-1.45Z" fill="#263238"/>
        <ellipse id="Ellipse_141" data-name="Ellipse 141" cx="10.06" cy="7.87" rx="10.06" ry="7.87" transform="translate(251.077 236.375) rotate(-82.69)" fill="#faddbe"/>
        <path id="Path_7134" data-name="Path 7134" d="M261.72,223.22a3.981,3.981,0,0,0-1.38,3.28,6.426,6.426,0,0,0,.29,1.84,4.449,4.449,0,0,0,.87,1.65l-.29.49a3.216,3.216,0,0,1-1.76-1.64,5.015,5.015,0,0,1-.56-2.34,4.414,4.414,0,0,1,.64-2.36,3.133,3.133,0,0,1,1.95-1.44Z" fill="#212144"/>
        <g id="Group_18092" data-name="Group 18092">
          <ellipse id="Ellipse_142" data-name="Ellipse 142" cx="2.45" cy="2.75" rx="2.45" ry="2.75" transform="matrix(0.998, -0.066, 0.066, 0.998, 231.821, 231.188)" fill="#212144"/>
          <ellipse id="Ellipse_143" data-name="Ellipse 143" cx="2.22" cy="2.49" rx="2.22" ry="2.49" transform="translate(218.629 237.14) rotate(-21.15)" fill="#212144"/>
          <path id="Path_7135" data-name="Path 7135" d="M241.1,226.65c.05.77-4.03.52-5.79.89-1.5.32-3.78,1.78-4.81.32-.93-1.31,1.4-2.8,4.29-3s6.25,1.02,6.3,1.79Z" fill="#212144"/>
          <path id="Path_7136" data-name="Path 7136" d="M214.78,235.1c.46.63,2.54-1.54,3.74-2.09,1.02-.47,3.2-.43,2.84-2.07-.32-1.48-2.55-1.53-4.25-.29S214.32,234.47,214.78,235.1Z" fill="#212144"/>
          <path id="Path_7137" data-name="Path 7137" d="M231.13,252.41a8,8,0,0,1,3.62-2.31,10.883,10.883,0,0,1,4.19-.54l.1.56a31.142,31.142,0,0,1-3.85,1.36c-1.27.39-2.46.86-3.73,1.39l-.34-.46Z" fill="#212144"/>
          <path id="Path_7138" data-name="Path 7138" d="M227.46,240.23a6.013,6.013,0,0,1-.63,3.21,5.568,5.568,0,0,1-1.02,1.36,4.818,4.818,0,0,0-.85.94.749.749,0,0,0-.05.38.317.317,0,0,0,.02.13c0,.03.04.06.07.11a3.039,3.039,0,0,0,1.03.57,28.35,28.35,0,0,0,2.86.76v.57a9.194,9.194,0,0,1-3.22-.1,3.71,3.71,0,0,1-1.68-.79,2.025,2.025,0,0,1-.37-.52,1.853,1.853,0,0,1-.15-.61,2.086,2.086,0,0,1,.18-1.11,4.652,4.652,0,0,1,1.2-1.32,5.409,5.409,0,0,0,.92-1,8.653,8.653,0,0,0,1.13-2.62l.57.06Z" fill="#be8372"/>
          <circle id="Ellipse_144" data-name="Ellipse 144" cx="6.2" cy="6.2" r="6.2" transform="matrix(0.014, -1, 1, 0.014, 241.436, 243.829)" fill="#dd5b53" opacity="0.2"/>
        </g>
      </g>
      <path id="Path_7139" data-name="Path 7139" d="M337.95,295.66a61.276,61.276,0,0,0-51.63-34.85l-4.55-.28,33.55,76.39,36.72-13.63-14.09-27.62Z" fill="#59ce93"/>
      <g id="Group_18094" data-name="Group 18094">
        <path id="Path_7140" data-name="Path 7140" d="M220.75,245.87c-.36-5.58.61-18.67-2.79-17.21s-4.24,20.36-4.24,20.36-.48-31.52-4.12-30.06-3.64,24.25-11.64,48.49l-44.93,94.9a19.331,19.331,0,0,0,13.8,27.26h0a19.346,19.346,0,0,0,21.62-11.77c11.64-28.92,33.02-91.33,35.09-103.48,1.7-9.94,1.26-14.24.6-16.8-1.08-4.22-3.11-7.34-3.39-11.69Z" fill="#faddbe"/>
        <path id="Path_7141" data-name="Path 7141" d="M198.24,265.35a84.809,84.809,0,0,0,3.11-11.55c.82-3.91,1.52-7.85,2.23-11.79l2.11-11.83c.37-1.97.76-3.94,1.22-5.9.23-.98.48-1.96.79-2.93a14.46,14.46,0,0,1,.55-1.46,5.919,5.919,0,0,1,.4-.73,1.527,1.527,0,0,1,.84-.67h-.04c.14-.02.29-.03.43-.04a1.337,1.337,0,0,1,.91.55,4.234,4.234,0,0,1,.56.94,12.658,12.658,0,0,1,.65,1.91c.34,1.28.58,2.56.79,3.85.4,2.58.68,5.16.9,7.75.42,5.17.64,10.36.59,15.56l-1.1-.02q.18-4.395.67-8.76a45.888,45.888,0,0,1,1.68-8.68,10.617,10.617,0,0,1,.95-2.1,3.514,3.514,0,0,1,.84-.94,1.814,1.814,0,0,1,1.39-.37,3.384,3.384,0,0,1,.34.11.928.928,0,0,1,.36.18,1.537,1.537,0,0,1,.19.17c.05.06.07.1.11.15a1.872,1.872,0,0,1,.17.3,7.4,7.4,0,0,1,.38,1.12,21.746,21.746,0,0,1,.41,2.2,63.139,63.139,0,0,1,.45,8.79c0,1.48-.1,2.91.03,4.33a25.309,25.309,0,0,0,.74,4.23,42.9,42.9,0,0,0,1.35,4.11,27.189,27.189,0,0,1,1.35,4.21,29.242,29.242,0,0,1,.43,8.8,50.3,50.3,0,0,1-1.61,8.63l-.42-.11a49.951,49.951,0,0,0,1.43-8.57,28.428,28.428,0,0,0-.57-8.59,26.933,26.933,0,0,0-1.35-4.1,40.994,40.994,0,0,1-1.4-4.18,24.9,24.9,0,0,1-.8-4.37c-.14-1.49-.06-2.97-.06-4.41a64.02,64.02,0,0,0-.5-8.66,19.8,19.8,0,0,0-.4-2.09,5.874,5.874,0,0,0-.32-.95,1.275,1.275,0,0,0-.1-.17c-.04-.08-.06-.08-.06-.08.03-.02-.08-.04-.13-.06a1.265,1.265,0,0,0-.18-.06c-.43-.07-.9.31-1.24.89a9.242,9.242,0,0,0-.83,1.89,45.987,45.987,0,0,0-1.58,8.48c-.31,2.88-.51,5.79-.61,8.68l-1.1-.02c.05-5.15-.12-10.32-.52-15.46-.2-2.57-.46-5.14-.84-7.68-.2-1.27-.42-2.53-.74-3.76a11.114,11.114,0,0,0-.58-1.77,3.329,3.329,0,0,0-.41-.73c-.07-.12-.16-.15-.21-.2-.02,0-.04-.02-.06-.03-.02.01-.03.02-.05,0h-.04a1.306,1.306,0,0,0-.29.3,3.642,3.642,0,0,0-.33.59,12.624,12.624,0,0,0-.52,1.35c-.3.93-.56,1.89-.79,2.86-.47,1.93-.86,3.89-1.24,5.85l-2.18,11.81c-.72,3.94-1.5,7.87-2.39,11.78a85.283,85.283,0,0,1-3.33,11.57l-.41-.16Z" fill="#be8372"/>
      </g>
      <g id="Group_18096" data-name="Group 18096">
        <path id="Path_7142" data-name="Path 7142" d="M369.6,376.59c-.16,11.17-5.03,18.98-11.13,23.48l-12.38-.19-3.06-.05h-.07L328.4,366.69l-.03-.08-13.04-29.7,36.72-13.64,13.7,33.63a53.525,53.525,0,0,1,3.86,19.68Z" fill="#faddbe"/>
        <path id="Path_7143" data-name="Path 7143" d="M359.43,363.22,263.04,374l-12.54-4.05a17.774,17.774,0,0,0-16.56,3.02c-10.94,8.73-28.72,24.84-24.11,26.13,7.76,2.18,17.89-1.9,26.99-4.19a21.315,21.315,0,0,1,14.94,1.7l6.31,3.23h96.02l5.33-36.62Z" fill="#faddbe"/>
        <g id="Group_18095" data-name="Group 18095">
          <path id="Path_7144" data-name="Path 7144" d="M212.14,397.39c2.6-1.52,5.24-2.97,7.89-4.39,2.64-1.44,5.33-2.79,7.99-4.19a30.75,30.75,0,0,1,4.19-1.91,21.323,21.323,0,0,1,4.52-1.04,23.019,23.019,0,0,1,4.62-.05,20.767,20.767,0,0,1,4.49.96l-.15.55a24.312,24.312,0,0,0-4.4-.5,21.378,21.378,0,0,0-4.38.3,22.625,22.625,0,0,0-4.22,1.12,34.252,34.252,0,0,0-4.01,1.85c-2.7,1.33-5.37,2.71-8.09,4-2.71,1.31-5.43,2.59-8.19,3.8l-.26-.51Z" fill="#be8372"/>
          <path id="Path_7145" data-name="Path 7145" d="M213.54,392.58c1.75-1.66,3.58-3.21,5.45-4.73s3.78-2.97,5.75-4.37a69.285,69.285,0,0,1,6.1-3.9c2.14-1.12,4.31-2.34,6.86-2.58l.05.57a12.655,12.655,0,0,0-3.2,1.32c-1.05.52-2.05,1.16-3.06,1.79-2,1.27-3.96,2.63-5.92,3.99s-3.88,2.78-5.83,4.16c-1.94,1.4-3.87,2.81-5.83,4.19l-.36-.44Z" fill="#be8372"/>
        </g>
        <rect id="Rectangle_1706" data-name="Rectangle 1706" width="12.94" height="1.45" transform="translate(328.252 365.862) rotate(-1.41)" fill="#be8372"/>
        <rect id="Rectangle_1707" data-name="Rectangle 1707" width="0.97" height="21.3" transform="translate(305.484 318.037) rotate(-26.15)" fill="#e9e9fd"/>
      </g>
    </g>
    <g id="Group_18099" data-name="Group 18099">
      <g id="Group_18098" data-name="Group 18098">
        <rect id="Rectangle_1708" data-name="Rectangle 1708" width="55.28" height="11.64" transform="translate(160.78 388.13)" fill="#263238"/>
        <path id="Path_7146" data-name="Path 7146" d="M179.53,399.77H91.77L66.55,312h87.77Z" fill="#e8fff3"/>
      </g>
      <path id="Path_7147" data-name="Path 7147" d="M91.42,399.87,66.07,311.64H93.22v.73H67.04l25.08,87.3Z" fill="#212144"/>
      <path id="Path_7148" data-name="Path 7148" d="M170.13,367.69l-16.08-55.32H113.59v-.73h41l16.24,55.84Z" fill="#212144"/>
    </g>
    <g id="Group_18101" data-name="Group 18101">
      <circle id="Ellipse_145" data-name="Ellipse 145" cx="7.27" cy="7.27" r="7.27" transform="translate(164.387 102.295) rotate(-69.79)" fill="#e8fff3"/>
      <circle id="Ellipse_146" data-name="Ellipse 146" cx="9.37" cy="9.37" r="9.37" transform="translate(7.864 277.9) rotate(-73.49)" fill="#e8fff3"/>
      <g id="Group_18100" data-name="Group 18100">
        <circle id="Ellipse_147" data-name="Ellipse 147" cx="7.27" cy="7.27" r="7.27" transform="translate(471.45 282.73)" fill="#e8fff3"/>
        <path id="Path_7149" data-name="Path 7149" d="M469.63,294.76l-.02-.97a11.091,11.091,0,0,0,3.43-.6l.31.92a12.4,12.4,0,0,1-3.73.66Zm-3.75-.51a11.907,11.907,0,0,1-3.41-1.63l.55-.8a11.075,11.075,0,0,0,3.14,1.5Zm10.82-1.91-.58-.78a11.3,11.3,0,0,0,2.44-2.49l.79.56a12.339,12.339,0,0,1-2.65,2.7Zm-16.99-2.32a12.2,12.2,0,0,1-1.83-3.31l.91-.33a11.254,11.254,0,0,0,1.69,3.05l-.77.59Zm21.34-3.77-.92-.3a11.144,11.144,0,0,0,.54-3.44c0-.3-.01-.59-.03-.89l.97-.08c.02.32.04.64.04.96a12.484,12.484,0,0,1-.58,3.74Zm-23.9-3.26c0-.16,0-.32-.01-.48a12.413,12.413,0,0,1,.44-3.28l.93.26a11.34,11.34,0,0,0-.41,3.02v.44l-.97.04Zm22.67-4.76a11.112,11.112,0,0,0-1.81-2.98l.74-.62a12.035,12.035,0,0,1,1.96,3.24l-.9.37Zm-19.87-1.91-.81-.53a12.3,12.3,0,0,1,2.54-2.8l.61.75A11.06,11.06,0,0,0,459.95,276.32Zm15.43-3.36a11.08,11.08,0,0,0-3.2-1.38l.24-.94a12.067,12.067,0,0,1,3.48,1.5Zm-10.08-.97-.35-.9a12.01,12.01,0,0,1,3.7-.8l.06.97a11.373,11.373,0,0,0-3.41.74Z" fill="#59ce93"/>
      </g>
      <path id="Path_7150" data-name="Path 7150" d="M306.58,119.31a5.33,5.33,0,1,1,5.33-5.33A5.335,5.335,0,0,1,306.58,119.31Zm0-9.7a4.36,4.36,0,1,0,4.36,4.36A4.364,4.364,0,0,0,306.58,109.61Z" fill="#59ce93"/>
    </g>
    <rect id="Rectangle_1709" data-name="Rectangle 1709" width="477.79" height="1.46" transform="translate(14.34 399.02)" fill="#212144"/>
  </g>
</svg>
