<?xml version="1.0" encoding="UTF-8"?><svg id="_層_2" xmlns="http://www.w3.org/2000/svg" xmlns:xlink="http://www.w3.org/1999/xlink" viewBox="0 0 691.16 500"><defs><style>.cls-1{fill:none;}.cls-2{clip-path:url(#clippath);}.cls-3{fill:#004f3d;}.cls-4{fill:#00cf91;}.cls-5{fill:#007658;}.cls-6,.cls-7,.cls-8,.cls-9{fill:#fff;}.cls-10{fill:#ffc300;}.cls-11{fill:#ff9300;}.cls-12{fill:#7df4cb;}.cls-13{fill:#dffff2;}.cls-14{clip-path:url(#clippath-1);}.cls-15{clip-path:url(#clippath-2);}.cls-16{opacity:.53;}.cls-17{opacity:.48;}.cls-7{opacity:.57;}.cls-8{opacity:.5;}.cls-9{opacity:.44;}</style><clipPath id="clippath"><path class="cls-7" d="M163.14,145.4c-16.03,0-29.02,12.99-29.02,29.02,0,16.03,12.99,29.02,29.02,29.02,16.03,0,29.02-12.99,29.02-29.02,0-16.03-12.99-29.02-29.02-29.02Zm0,45.56c-9.13,0-16.53-7.4-16.53-16.53,0-9.13,7.4-16.53,16.53-16.53,9.13,0,16.53,7.4,16.53,16.53,0,9.13-7.4,16.53-16.53,16.53Z"/></clipPath><clipPath id="clippath-1"><path class="cls-7" d="M233.88,145.4c-16.03,0-29.02,12.99-29.02,29.02,0,16.03,12.99,29.02,29.02,29.02,16.03,0,29.02-12.99,29.02-29.02,0-16.03-12.99-29.02-29.02-29.02Zm0,45.56c-9.13,0-16.53-7.4-16.53-16.53,0-9.13,7.4-16.53,16.53-16.53,9.13,0,16.53,7.4,16.53,16.53,0,9.13-7.4,16.53-16.53,16.53Z"/></clipPath><clipPath id="clippath-2"><path class="cls-7" d="M304.63,145.4c-16.03,0-29.02,12.99-29.02,29.02,0,16.03,12.99,29.02,29.02,29.02,16.03,0,29.02-12.99,29.02-29.02,0-16.03-12.99-29.02-29.02-29.02Zm0,45.56c-9.13,0-16.53-7.4-16.53-16.53,0-9.13,7.4-16.53,16.53-16.53,9.13,0,16.53,7.4,16.53,16.53,0,9.13-7.4,16.53-16.53,16.53Z"/></clipPath></defs><g id="Illustration"><g><path class="cls-13" d="M590.18,417.44c-41.65,29.49-96.79,51.12-162.83,59.86-152.05,20.11-357.16-10.54-402.59-123.55-27.69-68.88-7.39-149.44,50.92-209.12C139.77,79.02,254.96,34.76,372.5,37.88c115,3.05,227.31,64.15,274.49,132.11,59.48,85.7,32.09,184.49-56.81,247.45Z"/><g><g><g><path class="cls-13" d="M242.68,48.06c-.89,.54-2.06,.25-2.59-.64-1.05-1.74-2.19-3.45-3.39-5.1-.61-.83-.43-2,.39-2.62l.03-.02c.84-.61,2.03-.43,2.64,.42,1.26,1.73,2.46,3.54,3.57,5.37,.51,.84,.29,1.91-.47,2.48-.05,.04-.11,.08-.16,.11Zm-12.37-13.36c-1.41-1.47-2.9-2.89-4.42-4.23-.78-.69-.86-1.88-.17-2.67,.69-.79,1.88-.86,2.67-.17,1.6,1.41,3.17,2.9,4.66,4.45,.72,.75,.7,1.95-.05,2.67-.05,.05-.11,.1-.17,.15-.75,.57-1.83,.5-2.5-.2Zm-12.33-10.24c-1.7-1.11-3.47-2.17-5.26-3.13-.92-.5-1.26-1.64-.77-2.56,.5-.92,1.64-1.26,2.56-.77,1.88,1.02,3.75,2.13,5.53,3.3,.87,.57,1.12,1.74,.54,2.62-.12,.19-.27,.34-.44,.47-.62,.47-1.49,.52-2.18,.07Zm-14.32-7.23c-1.91-.71-3.87-1.34-5.83-1.88-1.01-.28-1.6-1.32-1.32-2.32,.28-1.01,1.32-1.6,2.32-1.32,2.06,.57,4.13,1.24,6.13,1.98,.98,.36,1.48,1.45,1.11,2.43-.13,.35-.35,.64-.63,.85-.5,.38-1.17,.5-1.8,.27Zm-15.57-3.86c-2.01-.27-4.06-.45-6.1-.54-1.04-.05-1.85-.93-1.8-1.98,.05-1.04,.93-1.85,1.98-1.8,2.14,.1,4.3,.29,6.42,.57,1.03,.14,1.76,1.09,1.63,2.12-.07,.52-.34,.96-.73,1.26-.38,.29-.87,.43-1.39,.37Zm-16.04-.32c-2.02,.19-4.06,.46-6.07,.82-1.03,.18-2.01-.5-2.19-1.53-.18-1.03,.5-2.01,1.53-2.19,2.11-.38,4.25-.67,6.38-.86,1.04-.1,1.96,.67,2.05,1.71,.06,.68-.24,1.3-.74,1.68-.27,.21-.6,.34-.97,.37Zm-58.99,37.99c-.92-.5-1.26-1.64-.76-2.56,1.02-1.88,2.13-3.74,3.31-5.53,.57-.87,1.75-1.11,2.62-.54,.87,.57,1.11,1.75,.54,2.62-1.12,1.7-2.18,3.47-3.14,5.25-.13,.24-.31,.45-.52,.61-.57,.43-1.37,.52-2.04,.16Zm43.29-34.75c-1.93,.63-3.86,1.35-5.73,2.15-.96,.41-2.07-.04-2.48-1-.41-.96,.04-2.07,1-2.48,1.97-.84,4-1.6,6.03-2.26,.99-.32,2.06,.22,2.38,1.21,.26,.79-.03,1.62-.65,2.09-.16,.12-.35,.22-.55,.29Zm-34.22,21.01c-.78-.69-.86-1.88-.17-2.67,1.41-1.6,2.91-3.17,4.46-4.65,.75-.73,1.95-.7,2.67,.06,.72,.75,.7,1.95-.06,2.67-1.47,1.41-2.9,2.89-4.24,4.42-.09,.1-.18,.18-.28,.26-.7,.53-1.7,.51-2.39-.09Zm19.64-14.34c-1.74,1.05-3.46,2.18-5.1,3.38-.84,.61-2.03,.42-2.64-.42-.6-.83-.43-2,.39-2.61l.03-.02c1.73-1.26,3.54-2.45,5.37-3.56,.89-.54,2.06-.25,2.59,.64,.5,.83,.28,1.9-.48,2.48-.05,.04-.11,.08-.17,.11Z"/><path class="cls-13" d="M109.87,63.08c.3-.22,.53-.54,.65-.92,.3-.93,.63-1.86,.97-2.78,.36-.98-.14-2.07-1.11-2.43-.98-.36-2.07,.13-2.43,1.11-.36,.97-.7,1.95-1.02,2.92-.32,.99,.22,2.06,1.21,2.38,.61,.2,1.25,.07,1.73-.29Z"/></g><g><path class="cls-13" d="M114.83,120.48c.73-.55,.97-1.56,.53-2.39-.46-.86-.91-1.74-1.33-2.63-.45-.94-1.58-1.34-2.52-.88-.94,.45-1.34,1.58-.88,2.52,.45,.93,.92,1.86,1.4,2.77,.49,.92,1.63,1.27,2.56,.78,.09-.05,.18-.1,.25-.16Z"/><path class="cls-13" d="M221.16,146.83c-.86,.59-2.04,.37-2.63-.5-.59-.86-.37-2.04,.5-2.63,1.64-1.12,3.26-2.33,4.83-3.6,.8-.66,2-.53,2.66,.28,.66,.81,.53,2-.28,2.66-.68,.55-1.37,1.09-2.06,1.62-.99,.75-2,1.48-3.02,2.17Zm9.95-10.72c-.76-.71-.8-1.91-.09-2.67,1.37-1.46,2.69-3,3.93-4.56,.64-.82,1.84-.96,2.65-.31,.82,.65,.96,1.84,.31,2.65-1.3,1.65-2.7,3.27-4.14,4.8-.07,.08-.16,.15-.24,.22-.72,.55-1.75,.51-2.43-.13Zm-18.83,15.93c-1.88,.94-3.83,1.81-5.79,2.58-.97,.38-2.07-.09-2.45-1.06-.38-.97,.09-2.07,1.06-2.45,1.86-.74,3.71-1.56,5.5-2.45,.93-.46,2.07-.09,2.53,.85,.41,.83,.16,1.81-.55,2.35-.09,.07-.19,.13-.3,.19Zm28.87-28.65c-.9-.53-1.2-1.69-.67-2.59,1.01-1.72,1.97-3.51,2.83-5.31,.45-.94,1.58-1.34,2.52-.89,.94,.45,1.34,1.58,.89,2.52-.91,1.9-1.91,3.78-2.98,5.6-.13,.22-.3,.4-.49,.55-.59,.45-1.42,.52-2.1,.12Zm-44.47,34.35c-2.04,.5-4.13,.92-6.21,1.25-1.03,.16-2-.54-2.16-1.57-.16-1.03,.54-2,1.57-2.16,1.98-.31,3.96-.71,5.9-1.18,1.01-.25,2.04,.37,2.29,1.39,.18,.76-.11,1.52-.69,1.96-.2,.15-.43,.26-.69,.33Zm-16.47,2.15c-2.11,.04-4.24,0-6.34-.14-1.04-.07-1.83-.96-1.77-2.01,.07-1.04,.96-1.83,2.01-1.77,1.99,.13,4.02,.17,6.02,.13,1.04-.02,1.91,.81,1.93,1.85,.01,.63-.28,1.19-.75,1.54-.31,.23-.69,.37-1.1,.38Zm-16.54-1.49c-2.07-.42-4.14-.93-6.16-1.51-1-.29-1.58-1.34-1.29-2.34,.29-1,1.34-1.58,2.34-1.29,1.92,.56,3.89,1.04,5.85,1.44,1.02,.21,1.68,1.2,1.48,2.23-.09,.47-.36,.86-.71,1.13-.42,.32-.96,.46-1.52,.35Zm-15.83-5.06c-1.92-.86-3.83-1.81-5.68-2.83-.91-.5-1.25-1.65-.74-2.57,.5-.91,1.65-1.24,2.57-.74,1.75,.97,3.56,1.87,5.39,2.69,.95,.43,1.38,1.54,.95,2.5-.13,.3-.34,.55-.58,.74-.53,.4-1.26,.51-1.91,.22Zm-14.33-8.42c-1.68-1.26-3.34-2.61-4.91-4.01-.78-.69-.85-1.89-.16-2.67,.69-.78,1.89-.85,2.67-.16,1.5,1.33,3.06,2.61,4.66,3.81,.84,.62,1.01,1.81,.38,2.64-.11,.15-.23,.27-.37,.38-.65,.5-1.58,.52-2.27,0Zm-12.12-11.35c-1.01-1.18-1.99-2.4-2.93-3.63-.34-.45-.67-.9-1-1.35-.61-.85-.44-2.04,.42-2.64,.85-.61,2.03-.42,2.64,.42,.31,.43,.63,.86,.95,1.28,.89,1.17,1.82,2.33,2.78,3.45,.68,.79,.59,1.98-.2,2.66-.03,.03-.06,.05-.09,.07-.79,.6-1.92,.49-2.57-.28Z"/><path class="cls-13" d="M249.89,108.44c.3-.23,.53-.54,.66-.93,.31-.97,.61-1.97,.88-2.97,.28-1.01-.31-2.05-1.32-2.32-1.01-.28-2.05,.31-2.32,1.32-.26,.95-.54,1.9-.84,2.82-.32,.99,.23,2.06,1.22,2.38,.61,.2,1.24,.06,1.72-.29Z"/></g><g><path class="cls-12" d="M235.09,79.62c.01-.38-.21-.72-.56-.86l-10.03-3.87c-.97-4.93-2.73-9.73-5.29-14.22l5.05-9.48c.18-.33,.12-.74-.13-1.02l-8.78-9.44c-.26-.28-.66-.36-1-.21l-9.82,4.35c-4.29-2.88-8.95-4.98-13.8-6.31l-3.13-10.28c-.11-.36-.44-.61-.81-.63l-12.88-.47c-.38-.01-.72,.21-.86,.56l-3.87,10.03c-4.93,.97-9.73,2.73-14.22,5.29l-9.48-5.05c-.33-.18-.74-.12-1.02,.13l-9.44,8.78c-.28,.26-.36,.66-.21,1l4.35,9.82c-2.88,4.29-4.98,8.95-6.31,13.8l-10.28,3.13c-.36,.11-.61,.44-.63,.81l-.47,12.88c-.01,.38,.21,.72,.56,.86l10.03,3.87c.97,4.93,2.73,9.73,5.29,14.22l-5.05,9.48c-.18,.33-.12,.74,.13,1.02l8.78,9.44c.26,.28,.66,.36,1,.21l9.82-4.35c4.29,2.88,8.95,4.98,13.8,6.31l3.13,10.28c.11,.36,.44,.61,.81,.63l12.88,.47c.38,.01,.72-.21,.86-.56l3.87-10.03c4.93-.97,9.73-2.73,14.22-5.29l9.48,5.05c.33,.18,.74,.12,1.02-.13l9.44-8.78c.28-.26,.36-.66,.21-1l-4.35-9.82c2.88-4.29,4.98-8.95,6.31-13.8l10.28-3.13c.36-.11,.61-.44,.63-.81l.47-12.88Z"/><path class="cls-4" d="M184.52,95.37c-6.27,3.44-14.16,1.14-17.6-5.13-1.67-3.03-2.05-6.54-1.08-9.86,.97-3.32,3.17-6.07,6.21-7.74,6.27-3.44,14.16-1.14,17.6,5.13,3.13,5.7,1.51,12.75-3.53,16.56-.5,.38-1.03,.72-1.6,1.03Zm-15.77-14.14c-.74,2.55-.45,5.23,.83,7.56,2.64,4.8,8.69,6.57,13.49,3.93,4.81-2.63,6.57-8.69,3.93-13.49-2.64-4.8-8.69-6.57-13.49-3.93-.44,.24-.85,.51-1.24,.8-1.69,1.28-2.92,3.06-3.52,5.13Z"/><path class="cls-4" d="M197.21,109.42c.86-.65,1.7-1.36,2.51-2.11h0c.25-.24,.5-.48,.75-.72,1.21-1.2,2.33-2.5,3.33-3.87l.04-.06c.04-.05,.08-.11,.11-.16,.07-.1,.15-.21,.22-.31,.19-.28,.18-.63-.02-.89-.05-.06-.1-.12-.17-.16-.34-.24-.81-.15-1.05,.19-1.23,1.76-2.66,3.4-4.24,4.88-7.88,7.33-18.64,9.65-28.35,7.13-5.4-1.4-10.48-4.31-14.55-8.69-.71-.77-1.39-1.57-2.01-2.39-4.2-5.55-6.35-12.33-6.1-19.38,.29-8.1,3.73-15.61,9.66-21.13,12.26-11.4,31.5-10.7,42.9,1.56,.7,.76,1.36,1.54,1.98,2.36,2.68,3.54,4.56,7.63,5.48,11.98,.02,.11,.07,.21,.14,.3,.17,.23,.46,.35,.76,.28,.41-.09,.67-.49,.58-.9-.97-4.57-2.94-8.86-5.75-12.58-.65-.86-1.34-1.69-2.08-2.48-11.97-12.87-32.17-13.6-45.04-1.64-6.23,5.8-9.84,13.67-10.14,22.18-.27,7.41,1.99,14.52,6.4,20.35,.66,.87,1.36,1.7,2.11,2.51,5.8,6.23,13.67,9.84,22.18,10.15,7.41,.27,14.52-1.99,20.35-6.4Z"/></g></g><g><g><path class="cls-13" d="M324.31,48.72c.4-.3,.57-.85,.39-1.34-.35-.93-.74-1.85-1.14-2.76-.26-.59-.95-.85-1.54-.59-.59,.26-.85,.96-.59,1.54,.39,.86,.75,1.75,1.09,2.63,.23,.6,.9,.91,1.51,.68,.11-.04,.2-.1,.29-.16Z"/><path class="cls-13" d="M320.27,40.72c-.55,.33-1.27,.16-1.6-.39-.85-1.39-1.77-2.75-2.75-4.05-.21-.27-.42-.55-.63-.82-.4-.51-.31-1.24,.19-1.64,.49-.36,1.24-.31,1.64,.19,.22,.28,.44,.57,.66,.85,1.03,1.36,2,2.79,2.89,4.25,.31,.52,.18,1.18-.29,1.54-.03,.02-.06,.05-.1,.07Zm-8.94-9.67c-1.4-1.39-2.9-2.7-4.46-3.9-.51-.39-.61-1.13-.21-1.64,.39-.51,1.13-.61,1.64-.21,1.63,1.26,3.21,2.63,4.68,4.09,.46,.45,.46,1.19,0,1.65-.04,.04-.08,.08-.13,.11-.46,.34-1.11,.31-1.52-.1Zm-9.37-7.22c-1.7-1-3.47-1.9-5.28-2.68-.59-.26-.86-.94-.61-1.53,.26-.59,.94-.86,1.53-.61,1.9,.82,3.76,1.77,5.54,2.82,.56,.33,.74,1.04,.41,1.6-.08,.13-.18,.25-.3,.34-.37,.28-.88,.32-1.3,.08Zm-10.86-4.7c-1.89-.55-3.84-.99-5.78-1.31-.64-.1-1.07-.7-.96-1.34,.1-.63,.7-1.07,1.34-.97,2.04,.33,4.07,.79,6.06,1.37,.62,.18,.97,.83,.79,1.45-.07,.25-.22,.46-.42,.6-.28,.22-.66,.3-1.03,.19Zm-11.68-1.9c-1.97-.08-3.96-.03-5.92,.13-.64,.05-1.21-.42-1.26-1.07-.05-.64,.42-1.21,1.07-1.26,2.06-.17,4.14-.22,6.21-.14,.64,.03,1.15,.57,1.12,1.21-.01,.36-.19,.68-.46,.89-.21,.16-.47,.25-.75,.24Zm-11.78,.99c-1.93,.4-3.85,.93-5.71,1.57-.61,.21-1.27-.11-1.48-.72-.21-.61,.11-1.27,.72-1.48,1.95-.67,3.96-1.23,5.99-1.65,.63-.13,1.25,.27,1.38,.9,.1,.46-.09,.91-.44,1.17-.13,.1-.29,.18-.46,.21Zm-11.18,3.84c-1.76,.86-3.5,1.85-5.15,2.93-.54,.35-1.26,.2-1.62-.34-.35-.54-.2-1.25,.34-1.62,1.73-1.13,3.55-2.16,5.4-3.07,.58-.28,1.28-.04,1.56,.54,.25,.51,.09,1.11-.34,1.44-.06,.04-.12,.08-.19,.12Zm-15.84,10.63c-.47-.44-.5-1.18-.06-1.65,1.21-1.31,2.52-2.57,3.87-3.76,.21-.18,.41-.36,.62-.53,.48-.43,1.23-.35,1.64,.14,.42,.49,.35,1.23-.14,1.64-.2,.16-.39,.33-.59,.5-1.3,1.13-2.54,2.34-3.7,3.59-.05,.05-.1,.1-.15,.14-.44,.34-1.08,.32-1.5-.07Z"/></g><g><path class="cls-13" d="M307.43,105.87c-1.64,1.21-3.36,2.32-5.13,3.32-.56,.32-1.27,.12-1.59-.44-.32-.56-.11-1.27,.44-1.59,1.68-.95,3.33-2.02,4.89-3.17,.52-.38,1.25-.27,1.63,.25,.38,.51,.27,1.24-.23,1.62h-.01Zm3.04-3.96c-.44-.47-.42-1.21,.05-1.65,1.41-1.33,2.76-2.76,4-4.24,.41-.49,1.15-.56,1.64-.15,.49,.41,.56,1.15,.15,1.64-1.3,1.56-2.71,3.06-4.19,4.45-.03,.03-.06,.06-.1,.08-.47,.36-1.14,.31-1.55-.13Zm-13.67,9.96c-1.88,.78-3.83,1.44-5.78,1.98-.62,.17-1.26-.19-1.44-.81-.17-.62,.19-1.26,.81-1.44,1.86-.52,3.72-1.15,5.51-1.89,.6-.25,1.28,.04,1.52,.63,.21,.5,.04,1.06-.37,1.38-.08,.06-.17,.11-.26,.15Zm21.52-18.94c-.54-.35-.7-1.07-.35-1.61,1.05-1.63,2.01-3.34,2.86-5.08,.28-.58,.98-.82,1.56-.54,.58,.28,.82,.98,.54,1.56-.88,1.83-1.89,3.62-2.99,5.33-.08,.12-.17,.22-.28,.3-.38,.29-.91,.32-1.34,.05Zm-33.28,22.19c-2.01,.3-4.06,.48-6.09,.53-.64,.02-1.18-.49-1.2-1.14-.02-.64,.49-1.18,1.14-1.2,1.94-.05,3.89-.22,5.81-.51,.64-.09,1.23,.34,1.33,.98,.07,.44-.12,.85-.45,1.1-.15,.11-.33,.19-.53,.22Zm-12.19,.33c-2.03-.19-4.06-.51-6.04-.94-.63-.14-1.03-.76-.89-1.39,.14-.63,.76-1.03,1.39-.89,1.89,.41,3.83,.71,5.76,.89,.64,.06,1.11,.63,1.05,1.27-.03,.34-.21,.63-.46,.82-.22,.17-.51,.26-.81,.23Zm-11.92-2.59c-1.92-.67-3.82-1.46-5.64-2.36-.58-.28-.82-.98-.53-1.56,.28-.58,.98-.82,1.56-.53,1.74,.85,3.55,1.61,5.38,2.25,.61,.21,.93,.88,.72,1.49-.08,.23-.22,.41-.4,.55-.3,.23-.71,.31-1.09,.17Z"/><path class="cls-13" d="M324.87,82.09c.18-.14,.32-.32,.4-.55,.32-.95,.62-1.91,.88-2.85,.17-.62-.19-1.26-.82-1.44-.62-.17-1.26,.19-1.44,.82-.25,.9-.53,1.82-.84,2.72-.21,.61,.12,1.27,.73,1.48,.38,.13,.78,.05,1.08-.18Z"/></g><g><path class="cls-12" d="M315.31,62.04c0-.25-.14-.48-.38-.57l-6.71-2.59c-.65-3.3-1.82-6.51-3.54-9.51l3.38-6.34c.12-.22,.08-.5-.09-.68l-5.87-6.32c-.17-.18-.44-.24-.67-.14l-6.57,2.91c-2.87-1.93-5.99-3.34-9.23-4.22l-2.1-6.88c-.07-.24-.29-.41-.54-.42l-8.62-.31c-.25,0-.48,.14-.57,.38l-2.59,6.71c-3.3,.65-6.51,1.82-9.51,3.54l-6.34-3.38c-.22-.12-.5-.08-.68,.09l-6.32,5.87c-.18,.17-.24,.44-.14,.67l2.91,6.57c-1.93,2.87-3.34,5.99-4.22,9.23l-6.88,2.1c-.24,.07-.41,.29-.42,.54l-.31,8.62c0,.25,.14,.48,.38,.57l6.71,2.59c.65,3.3,1.82,6.51,3.54,9.51l-3.38,6.34c-.12,.22-.08,.5,.09,.68l5.88,6.32c.17,.18,.44,.24,.67,.14l6.57-2.91c2.87,1.93,5.99,3.34,9.23,4.22l2.1,6.88c.07,.24,.29,.41,.54,.42l8.62,.31c.25,0,.48-.14,.57-.38l2.59-6.71c3.3-.65,6.51-1.82,9.51-3.54l6.34,3.38c.22,.12,.5,.08,.68-.09l6.32-5.88c.18-.17,.24-.44,.14-.67l-2.91-6.57c1.93-2.87,3.34-5.99,4.22-9.23l6.88-2.1c.24-.07,.41-.29,.42-.54l.31-8.62Z"/><path class="cls-4" d="M281.55,72.71c-2.07,1.14-4.45,1.4-6.72,.74-2.26-.66-4.13-2.16-5.27-4.23-2.34-4.27-.78-9.63,3.49-11.99,4.27-2.34,9.64-.77,11.98,3.49,1.13,2.07,1.4,4.45,.74,6.72-.54,1.84-1.63,3.42-3.13,4.56-.34,.26-.71,.5-1.1,.71Zm-9.94-4.62c.83,1.52,2.21,2.63,3.88,3.11,1.66,.49,3.42,.29,4.94-.54h0c1.52-.84,2.63-2.21,3.11-3.88,.49-1.66,.29-3.42-.54-4.94-1.72-3.14-5.68-4.29-8.82-2.57-.28,.16-.55,.33-.8,.52-2.52,1.91-3.34,5.44-1.77,8.3Z"/><path class="cls-4" d="M290.38,82.49c.59-.45,1.16-.93,1.71-1.44,1.1-1.02,2.09-2.15,2.96-3.37l.12-.16c.3-.43,.27-.98-.03-1.37-.07-.1-.16-.18-.26-.25-.53-.37-1.25-.24-1.62,.29-.8,1.14-1.72,2.2-2.75,3.16h0c-.06,.05-.11,.1-.17,.16-2.45,2.23-5.35,3.77-8.49,4.54-1.7,.42-3.47,.61-5.26,.56h-.04s-.09,0-.13,0c-5.25-.19-10.1-2.41-13.68-6.26-.46-.5-.9-1.01-1.3-1.55-2.72-3.59-4.11-7.98-3.95-12.55,.19-5.25,2.41-10.1,6.26-13.68,3.84-3.57,8.85-5.44,14.09-5.25,5.25,.19,10.1,2.41,13.68,6.26,.46,.49,.88,1,1.28,1.53,1.74,2.29,2.95,4.94,3.55,7.76,.04,.17,.11,.33,.21,.46,.26,.35,.72,.53,1.17,.44,.63-.14,1.03-.75,.9-1.38-.67-3.15-2.03-6.11-3.97-8.68-.45-.59-.93-1.16-1.44-1.71-4-4.3-9.43-6.79-15.3-7-5.87-.21-11.47,1.87-15.77,5.87-4.3,4-6.79,9.43-7,15.3-.19,5.11,1.37,10.01,4.41,14.04,.45,.6,.94,1.18,1.45,1.73,7.74,8.33,20.48,9.29,29.36,2.57Z"/></g></g></g><g><g><polygon class="cls-3" points="315.59 392.63 304.18 471.34 436.5 471.34 419.27 392.63 315.59 392.63"/><path class="cls-5" d="M93.31,140.61v234.27c0,19.27,15.36,35.03,34.62,35.53,85.57,2.21,384.84,7.56,466.29,6.36,14-.21,25.34-11.41,25.74-25.4,1.57-54.42,4.12-185.3-5.32-246.05-1.99-12.8-12.79-22.36-25.73-22.78-71.69-2.29-388.94-9.58-470.36-7.75-14.04,.32-25.25,11.79-25.25,25.83Z"/><path class="cls-12" d="M108.01,139.47v222.57c0,11.25,9.03,20.42,20.28,20.59l454.21,5.61c11.15,.17,20.3-8.81,20.34-19.96l.76-220.58c.03-7.98-6.32-14.51-14.3-14.71l-465.03-9.4c-8.92-.22-16.27,6.95-16.27,15.87Z"/><path class="cls-12" d="M606.26,397.36h-.01l-498.26-8.49c-.35,0-.62-.29-.62-.64,0-.35,.3-.61,.64-.62l498.26,8.49c.35,0,.62,.29,.62,.64,0,.34-.29,.62-.63,.62Z"/><path class="cls-12" d="M362.05,407.73c-3.21,0-5.81-2.61-5.81-5.81,0-3.21,2.61-5.81,5.81-5.81,3.21,0,5.81,2.61,5.81,5.81,0,3.21-2.61,5.81-5.81,5.81Zm0-10.37c-2.51,0-4.55,2.04-4.55,4.55,0,2.51,2.04,4.55,4.55,4.55,2.51,0,4.55-2.04,4.55-4.55,0-2.51-2.04-4.55-4.55-4.55Z"/><path class="cls-5" d="M465.01,492.27h-193.67c-5.26,0-9.21-3.75-8.19-7.77l2.49-9.83c.75-2.96,4-5.13,7.86-5.25l186.7-5.83c4.03-.13,7.61,2.02,8.49,5.09l4.48,15.65c1.16,4.07-2.81,7.93-8.15,7.93Z"/><path class="cls-12" d="M375.6,472.08c-.34,0-.62-.28-.63-.62,0-.35,.27-.63,.62-.64l8-.12c.33,0,.63,.27,.64,.62,0,.35-.27,.63-.62,.64l-8,.12h0Z"/><path class="cls-12" d="M270.32,486.85s-.07,0-.1,0c-.34-.05-.58-.38-.52-.72l1.14-7.15c.61-3.84,3.88-6.67,7.77-6.73l84.86-1.24h0c.34,0,.62,.28,.63,.62,0,.35-.27,.63-.62,.64l-84.86,1.24c-3.28,.05-6.03,2.43-6.54,5.66l-1.14,7.15c-.05,.31-.32,.53-.62,.53Z"/></g><g><g class="cls-16"><rect class="cls-6" x="360.17" y="155.03" width="11.95" height="210.72"/><rect class="cls-6" x="380.13" y="155.03" width="11.95" height="210.72"/><rect class="cls-6" x="400.09" y="155.03" width="11.95" height="210.72"/><rect class="cls-6" x="420.05" y="155.03" width="11.95" height="210.72"/><rect class="cls-6" x="440.02" y="155.03" width="11.95" height="210.72"/><rect class="cls-6" x="459.98" y="155.03" width="11.95" height="210.72"/><rect class="cls-6" x="479.94" y="155.03" width="11.95" height="210.72"/></g><rect class="cls-10" x="360.17" y="255.47" width="11.95" height="110.28"/><rect class="cls-10" x="380.13" y="293.37" width="11.95" height="72.38"/><rect class="cls-10" x="400.09" y="199.7" width="11.95" height="166.04"/><rect class="cls-10" x="420.05" y="325.85" width="11.95" height="39.89"/><rect class="cls-10" x="440.02" y="221.9" width="11.95" height="143.84"/><rect class="cls-10" x="459.98" y="246.8" width="11.95" height="118.94"/><rect class="cls-10" x="479.94" y="273.88" width="11.95" height="91.87"/></g><g><g><path class="cls-7" d="M163.14,145.4c-16.03,0-29.02,12.99-29.02,29.02,0,16.03,12.99,29.02,29.02,29.02,16.03,0,29.02-12.99,29.02-29.02,0-16.03-12.99-29.02-29.02-29.02Zm0,45.56c-9.13,0-16.53-7.4-16.53-16.53,0-9.13,7.4-16.53,16.53-16.53,9.13,0,16.53,7.4,16.53,16.53,0,9.13-7.4,16.53-16.53,16.53Z"/><g class="cls-2"><rect class="cls-5" x="122.61" y="168.04" width="86.21" height="36.48"/></g></g><g><path class="cls-7" d="M233.88,145.4c-16.03,0-29.02,12.99-29.02,29.02,0,16.03,12.99,29.02,29.02,29.02,16.03,0,29.02-12.99,29.02-29.02,0-16.03-12.99-29.02-29.02-29.02Zm0,45.56c-9.13,0-16.53-7.4-16.53-16.53,0-9.13,7.4-16.53,16.53-16.53,9.13,0,16.53,7.4,16.53,16.53,0,9.13-7.4,16.53-16.53,16.53Z"/><g class="cls-14"><rect class="cls-5" x="193.35" y="153.94" width="86.21" height="50.59"/></g></g><g><path class="cls-7" d="M304.63,145.4c-16.03,0-29.02,12.99-29.02,29.02,0,16.03,12.99,29.02,29.02,29.02,16.03,0,29.02-12.99,29.02-29.02,0-16.03-12.99-29.02-29.02-29.02Zm0,45.56c-9.13,0-16.53-7.4-16.53-16.53,0-9.13,7.4-16.53,16.53-16.53,9.13,0,16.53,7.4,16.53,16.53,0,9.13-7.4,16.53-16.53,16.53Z"/><g class="cls-15"><rect class="cls-5" x="264.1" y="186.28" width="86.21" height="18.24"/></g></g></g><g><path class="cls-9" d="M326.92,366.91l-186.17-1.4c-3.67-.03-6.64-3.01-6.64-6.69v-95.65c0-3.69,2.99-6.69,6.69-6.69h186.17c3.69,0,6.69,2.99,6.69,6.69v97.05c0,3.71-3.02,6.71-6.74,6.69Z"/><path class="cls-9" d="M298.04,299.67l-23.94-25.31-34.33,37.33-24.22-26.13-22.72,25.68-17.42-21.16-34.33,35.74v25.85c0,3.42,2.76,6.19,6.17,6.22l173.15,1.3c3.45,.03,6.26-2.77,6.26-6.22v-70.31l-28.64,17.02Z"/><rect class="cls-6" x="298.19" y="298.97" width=".63" height="60.22"/><rect class="cls-6" x="273.79" y="274.36" width=".63" height="84.47"/><rect class="cls-6" x="239.46" y="311.24" width=".63" height="47.34"/><rect class="cls-6" x="215.88" y="286.49" width=".63" height="72.09"/><rect class="cls-6" x="192.52" y="310.48" width=".63" height="48.11"/><rect class="cls-6" x="175.47" y="288.29" width=".63" height="69.83"/><circle class="cls-11" cx="175.79" cy="288.29" r="5.26" transform="translate(-149.76 377.88) rotate(-74.01)"/><path class="cls-11" d="M196.31,310.48c0,1.91-1.55,3.47-3.47,3.47-1.91,0-3.47-1.55-3.47-3.47,0-1.91,1.55-3.47,3.47-3.47,1.91,0,3.47,1.55,3.47,3.47Z"/><path class="cls-11" d="M219.66,286.49c0,1.91-1.55,3.47-3.47,3.47-1.91,0-3.47-1.55-3.47-3.47s1.55-3.47,3.47-3.47c1.91,0,3.47,1.55,3.47,3.47Z"/><path class="cls-11" d="M243.24,311.24c0,1.91-1.55,3.47-3.47,3.47-1.91,0-3.47-1.55-3.47-3.47,0-1.91,1.55-3.47,3.47-3.47,1.91,0,3.47,1.55,3.47,3.47Z"/><path class="cls-11" d="M277.57,274.36c0,1.91-1.55,3.47-3.47,3.47-1.91,0-3.47-1.55-3.47-3.47,0-1.91,1.55-3.47,3.47-3.47,1.91,0,3.47,1.55,3.47,3.47Z"/><path class="cls-10" d="M301.97,298.97c0,1.91-1.55,3.47-3.47,3.47-1.91,0-3.47-1.55-3.47-3.47,0-1.91,1.55-3.47,3.47-3.47,1.91,0,3.47,1.55,3.47,3.47Z"/></g><g class="cls-17"><path class="cls-6" d="M187.91,240.56h-51.03c-2.13,0-3.87,1.21-3.87,2.69s1.73,2.69,3.87,2.69h51.03c2.13,0,3.87-1.21,3.87-2.69,0-1.49-1.73-2.69-3.87-2.69Z"/><path class="cls-6" d="M187.91,228.64h-51.03c-2.13,0-3.87,1.21-3.87,2.69s1.73,2.69,3.87,2.69h51.03c2.13,0,3.87-1.21,3.87-2.69s-1.73-2.69-3.87-2.69Z"/><path class="cls-6" d="M187.91,216.72h-51.03c-2.13,0-3.87,1.21-3.87,2.69s1.73,2.69,3.87,2.69h51.03c2.13,0,3.87-1.21,3.87-2.69s-1.73-2.69-3.87-2.69Z"/></g><g class="cls-17"><path class="cls-6" d="M258.85,240.56h-51.03c-2.13,0-3.87,1.21-3.87,2.69s1.73,2.69,3.87,2.69h51.03c2.13,0,3.87-1.21,3.87-2.69s-1.73-2.69-3.87-2.69Z"/><path class="cls-6" d="M258.85,228.64h-51.03c-2.13,0-3.87,1.21-3.87,2.69,0,1.49,1.73,2.69,3.87,2.69h51.03c2.13,0,3.87-1.21,3.87-2.69s-1.73-2.69-3.87-2.69Z"/><path class="cls-6" d="M258.85,216.72h-51.03c-2.13,0-3.87,1.21-3.87,2.69s1.73,2.69,3.87,2.69h51.03c2.13,0,3.87-1.21,3.87-2.69s-1.73-2.69-3.87-2.69Z"/></g><g class="cls-17"><path class="cls-6" d="M329.79,240.56h-51.03c-2.13,0-3.87,1.21-3.87,2.69s1.73,2.69,3.87,2.69h51.03c2.13,0,3.87-1.21,3.87-2.69s-1.73-2.69-3.87-2.69Z"/><path class="cls-6" d="M329.79,228.64h-51.03c-2.13,0-3.87,1.21-3.87,2.69s1.73,2.69,3.87,2.69h51.03c2.13,0,3.87-1.21,3.87-2.69s-1.73-2.69-3.87-2.69Z"/><path class="cls-6" d="M329.79,216.72h-51.03c-2.13,0-3.87,1.21-3.87,2.69s1.73,2.69,3.87,2.69h51.03c2.13,0,3.87-1.21,3.87-2.69s-1.73-2.69-3.87-2.69Z"/></g><g><g><circle class="cls-13" cx="545.71" cy="251.77" r="23.61" transform="translate(224.88 759.95) rotate(-82.5)"/><path class="cls-4" d="M559.75,246.78c.73,1.78,1.14,3.72,1.14,5.76,0,8.38-6.79,15.17-15.17,15.17-8.38,0-15.17-6.79-15.17-15.17s6.79-15.17,15.17-15.17c.26,0,.51,0,.77,.02v-3.84c-.25-.01-.51-.02-.77-.02-10.5,0-19.01,8.51-19.01,19.01,0,10.5,8.51,19.01,19.01,19.01,10.5,0,19.01-8.51,19.01-19.01,0-2.59-.52-5.05-1.45-7.3l-3.53,1.53Z"/><path class="cls-8" d="M565.12,285.38h-38.48c-2.42,0-4.37,1.96-4.37,4.37,0,2.42,1.96,4.37,4.37,4.37h38.48c2.42,0,4.37-1.96,4.37-4.37,0-2.42-1.96-4.37-4.37-4.37Z"/></g><g><circle class="cls-13" cx="545.61" cy="175.87" r="23.61" transform="translate(280.65 684.22) rotate(-80.34)"/><path class="cls-4" d="M553.64,189.47c-2.34,1.48-5.11,2.33-8.08,2.33-8.38,0-15.17-6.79-15.17-15.17,0-8.38,6.79-15.17,15.17-15.17,.26,0,.51,0,.77,.02v-3.84c-.25-.01-.51-.02-.77-.02-10.5,0-19.01,8.51-19.01,19.01,0,10.5,8.51,19.01,19.01,19.01,3.66,0,7.09-1.04,9.99-2.83l-1.91-3.34Z"/><path class="cls-8" d="M565.22,209.49h-38.48c-2.42,0-4.37,1.96-4.37,4.37,0,2.42,1.96,4.37,4.37,4.37h38.48c2.42,0,4.37-1.96,4.37-4.37,0-2.42-1.96-4.37-4.37-4.37Z"/></g><g><circle class="cls-13" cx="545.8" cy="328.05" r="23.61" transform="translate(149.32 826.36) rotate(-82.5)"/><path class="cls-10" d="M558.66,336.58c-2.73,4.01-7.33,6.64-12.54,6.64-8.38,0-15.17-6.79-15.17-15.17s6.79-15.17,15.17-15.17c.26,0,.51,0,.77,.02v-3.84c-.25-.01-.51-.02-.77-.02-10.5,0-19.01,8.51-19.01,19.01,0,10.5,8.51,19.01,19.01,19.01,6.5,0,12.23-3.26,15.66-8.23l-3.11-2.25Z"/><path class="cls-8" d="M526.56,369.64h38.48c2.42,0,4.37-1.96,4.37-4.37s-1.96-4.37-4.37-4.37h-38.48c-2.42,0-4.37,1.96-4.37,4.37,0,2.42,1.96,4.37,4.37,4.37Z"/></g></g></g></g><rect class="cls-1" width="691.16" height="500"/></g></svg>