<svg id="Group_18143" data-name="Group 18143" xmlns="http://www.w3.org/2000/svg" xmlns:xlink="http://www.w3.org/1999/xlink" width="50" height="50" viewBox="0 0 50 50">
  <defs>
    <clipPath id="clip-path">
      <rect id="Rectangle_1340" data-name="Rectangle 1340" width="50" height="50" fill="none"/>
    </clipPath>
  </defs>
  <g id="Group_4078" data-name="Group 4078" clip-path="url(#clip-path)">
    <path id="Path_3454" data-name="Path 3454" d="M0,22.818c.254-1.3.448-2.606.771-3.884a24.924,24.924,0,1,1-.514,9.757c-.073-.463-.17-.922-.256-1.382v-4.49M32.236,26.4c-1.379,3.9-3.726,5.814-7.1,5.909-3.324.094-5.791-1.814-7.363-5.751l-5.811,1.209c.667,5.828,7.17,10.988,13.358,10.675,6.519-.329,12.628-5.561,12.722-10.965l-5.8-1.078M18.1,15.88A3.06,3.06,0,0,0,18.07,22a3.167,3.167,0,0,0,3.09-2.933A3.17,3.17,0,0,0,18.1,15.88m16.365,3.2A3.061,3.061,0,1,0,31.384,22a3.141,3.141,0,0,0,3.084-2.925" transform="translate(0 0)" fill="#1aa19b"/>
    <path id="Path_3455" data-name="Path 3455" d="M64.165,96.818l5.8,1.078c-.094,5.4-6.2,10.635-12.722,10.965-6.188.312-12.691-4.848-13.358-10.676L49.7,96.977c1.572,3.937,4.039,5.844,7.363,5.751,3.378-.095,5.725-2.008,7.1-5.909" transform="translate(-31.929 -70.418)" fill="#fff"/>
    <path id="Path_3456" data-name="Path 3456" d="M58.271,58.238a3.06,3.06,0,1,1-.032,6.121,3.06,3.06,0,0,1,.032-6.121" transform="translate(-40.169 -42.358)" fill="#fff"/>
    <path id="Path_3457" data-name="Path 3457" d="M110.164,61.434a3.061,3.061,0,1,1-3.035-3.2,3.129,3.129,0,0,1,3.035,3.2" transform="translate(-75.697 -42.358)" fill="#fff"/>
  </g>
</svg>
