<svg width="36" height="36" viewBox="0 0 36 36" fill="none" xmlns="http://www.w3.org/2000/svg">
<circle cx="17.5292" cy="17.5292" r="17.5292" fill="#FFC145"/>
<path d="M25.4062 24.4062L22.7708 22.25L20.1354 24.4062L17.5 22.25L14.8646 24.4062L12.2292 22.25L9.59375 24.4062V15.7812C9.59375 13.6844 10.4267 11.6734 11.9094 10.1907C13.3921 8.70798 15.4031 7.875 17.5 7.875C19.5969 7.875 21.6079 8.70798 23.0906 10.1907C24.5733 11.6734 25.4062 13.6844 25.4062 15.7812V24.4062Z" fill="white" stroke="#333333" stroke-linecap="round" stroke-linejoin="round"/>
<path d="M14.9844 16.1406C15.3813 16.1406 15.7031 15.8188 15.7031 15.4219C15.7031 15.0249 15.3813 14.7031 14.9844 14.7031C14.5874 14.7031 14.2656 15.0249 14.2656 15.4219C14.2656 15.8188 14.5874 16.1406 14.9844 16.1406Z" fill="black"/>
<path d="M20.0156 16.1406C20.4126 16.1406 20.7344 15.8188 20.7344 15.4219C20.7344 15.0249 20.4126 14.7031 20.0156 14.7031C19.6187 14.7031 19.2969 15.0249 19.2969 15.4219C19.2969 15.8188 19.6187 16.1406 20.0156 16.1406Z" fill="black"/>
</svg>
